<svg xmlns="http://www.w3.org/2000/svg" width="2133.333" height="2133.333" preserveAspectRatio="xMidYMid meet" version="1.0" viewBox="0 0 1600 1600"><metadata>Created by potrace 1.14, written by Peter Selinger 2001-2017</metadata><g fill="#000" stroke="none"><path d="M0 8000 l0 -4250 8000 0 8000 0 0 4250 0 4250 -8000 0 -8000 0 0 -4250z m680 3835 c11 -13 10 -14 -4 -9 -9 3 -16 10 -16 15 0 13 6 11 20 -6z m930 -7 c0 -7 -5 -6 -13 1 -8 6 -18 7 -22 3 -5 -4 -5 -2 -1 5 8 14 36 6 36 -9z m200 12 c0 -5 -5 -10 -11 -10 -5 0 -7 5 -4 10 3 6 8 10 11 10 2 0 4 -4 4 -10z m248 -15 c-3 -3 -9 2 -12 12 -6 14 -5 15 5 6 7 -7 10 -15 7 -18z m347 15 c3 -5 1 -10 -4 -10 -6 0 -11 5 -11 10 0 6 2 10 4 10 3 0 8 -4 11 -10z m634 -13 c0 -9 -2 -8 -6 1 -2 6 -10 9 -15 6 -7 -4 -8 -2 -4 5 9 13 26 5 25 -12z m246 -5 c-6 -7 -34 11 -29 19 3 5 11 3 19 -4 7 -6 12 -13 10 -15z m1290 13 c171 1 315 0 320 -2 11 -4 12 -109 2 -120 -4 -3 -7 19 -7 50 0 57 -7 66 -45 57 -17 -4 -609 1 -613 5 -10 9 11 25 21 17 7 -5 151 -8 322 -7z m1095 2 c47 0 110 2 140 3 30 0 65 -1 78 -4 12 -3 22 -1 22 4 0 5 13 5 30 0 18 -5 32 -5 36 1 3 5 10 6 16 3 15 -10 79 -14 74 -5 -3 3 8 6 22 5 15 -1 33 -3 40 -3 6 -1 12 -5 12 -10 0 -5 -87 -9 -192 -9 -367 1 -481 -3 -494 -17 -7 -6 -15 -27 -17 -46 -2 -19 -4 -9 -3 21 l1 55 68 0 c38 0 67 4 67 10 0 7 3 7 8 0 4 -6 45 -9 92 -8z m530 -6 c0 -4 -11 -8 -25 -9 -23 -2 -32 7 -19 20 7 7 44 -2 44 -11z m75 9 c3 6 15 6 30 0 16 -6 27 -6 31 1 3 5 11 6 17 2 15 -10 38 -10 55 0 6 5 12 4 12 -1 0 -10 36 -9 46 0 3 4 16 3 29 -2 14 -5 26 -5 34 3 8 8 11 7 11 -4 0 -12 -28 -14 -165 -15 -91 0 -165 3 -165 6 0 15 13 18 36 10 14 -6 26 -6 29 0z m345 -12 c0 -6 -6 -5 -15 2 -8 7 -15 8 -15 3 0 -5 -9 -9 -20 -10 -11 -1 -20 3 -20 8 0 6 4 8 8 5 4 -2 14 -1 22 4 16 10 40 2 40 -12z m60 0 c0 -6 -6 -5 -15 2 -11 9 -15 9 -15 1 0 -7 -5 -9 -11 -5 -8 4 -7 9 2 14 15 10 39 2 39 -12z m205 11 c6 0 25 1 43 2 18 1 37 -2 42 -7 7 -7 -236 -10 -275 -3 -24 5 85 14 130 11 28 -1 55 -3 60 -3z m185 -5 c0 -6 -13 -9 -30 -6 -16 2 -30 7 -30 11 0 3 14 6 30 6 17 0 30 -5 30 -11z m60 1 c0 -8 -4 -15 -10 -15 -5 0 -7 7 -4 15 4 8 8 15 10 15 2 0 4 -7 4 -15z m60 -1 c0 -8 -5 -12 -10 -9 -6 4 -8 11 -5 16 9 14 15 11 15 -7z m60 6 c0 -5 -5 -10 -11 -10 -5 0 -7 5 -4 10 3 6 8 10 11 10 2 0 4 -4 4 -10z m90 -7 c0 -3 -8 -3 -19 0 -10 2 -25 0 -34 -4 -10 -6 -18 -5 -23 2 -4 7 -3 9 2 6 6 -3 16 -2 23 2 13 8 51 3 51 -6z m60 13 c0 -2 -8 -10 -17 -17 -16 -13 -17 -12 -4 4 13 16 21 21 21 13z m89 -9 c14 4 14 3 1 -6 -9 -6 -18 -7 -24 -1 -6 6 -16 5 -25 -3 -14 -11 -14 -10 -2 6 9 11 18 14 24 8 5 -5 17 -7 26 -4z m71 -2 c0 -1 -12 -2 -26 -2 -17 0 -22 2 -13 7 10 7 39 3 39 -5z m160 0 c0 -1 -15 -2 -32 -2 -26 -1 -29 1 -13 7 17 6 45 3 45 -5z m80 0 c0 -2 -9 -3 -19 -2 -11 0 -18 5 -15 9 4 6 34 0 34 -7z m120 0 c11 -13 10 -14 -4 -9 -9 3 -16 10 -16 15 0 13 6 11 20 -6z m264 7 c3 -5 -1 -9 -9 -9 -8 0 -12 4 -9 9 3 4 7 8 9 8 2 0 6 -4 9 -8z m406 -7 c0 -2 -9 -3 -19 -2 -11 0 -18 5 -15 9 4 6 34 0 34 -7z m120 5 c0 -5 -5 -10 -11 -10 -5 0 -7 5 -4 10 3 6 8 10 11 10 2 0 4 -4 4 -10z m120 0 c0 -5 -5 -10 -11 -10 -5 0 -7 5 -4 10 3 6 8 10 11 10 2 0 4 -4 4 -10z m464 2 c3 -5 -1 -9 -9 -9 -8 0 -12 4 -9 9 3 4 7 8 9 8 2 0 6 -4 9 -8z m-8489 -12 c3 -6 -1 -7 -9 -4 -18 7 -21 14 -7 14 6 0 13 -4 16 -10z m60 0 c3 -6 -1 -7 -9 -4 -18 7 -21 14 -7 14 6 0 13 -4 16 -10z m195 4 c0 -8 -19 -13 -24 -6 -3 5 1 9 9 9 8 0 15 -2 15 -3z m40 0 c0 -8 -19 -13 -24 -6 -3 5 1 9 9 9 8 0 15 -2 15 -3z m40 0 c0 -8 -19 -13 -24 -6 -3 5 1 9 9 9 8 0 15 -2 15 -3z m40 0 c0 -8 -19 -13 -24 -6 -3 5 1 9 9 9 8 0 15 -2 15 -3z m55 -4 c3 -6 -1 -7 -9 -4 -18 7 -21 14 -7 14 6 0 13 -4 16 -10z m240 0 c3 -6 -1 -7 -9 -4 -18 7 -21 14 -7 14 6 0 13 -4 16 -10z m820 -8 c-3 -3 -11 0 -18 7 -9 10 -8 11 6 5 10 -3 15 -9 12 -12z m480 0 c-3 -3 -11 0 -18 7 -9 10 -8 11 6 5 10 -3 15 -9 12 -12z m40 0 c-3 -3 -11 0 -18 7 -9 10 -8 11 6 5 10 -3 15 -9 12 -12z m40 0 c-3 -3 -11 0 -18 7 -9 10 -8 11 6 5 10 -3 15 -9 12 -12z m35 8 c0 -5 -2 -10 -4 -10 -3 0 -8 5 -11 10 -3 6 -1 10 4 10 6 0 11 -4 11 -10z m180 0 c0 -5 -5 -10 -11 -10 -5 0 -7 5 -4 10 3 6 8 10 11 10 2 0 4 -4 4 -10z m90 0 c8 -5 11 -10 5 -10 -5 0 -17 5 -25 10 -8 5 -10 10 -5 10 6 0 17 -5 25 -10z m215 0 c-3 -5 -12 -10 -18 -10 -7 0 -6 4 3 10 19 12 23 12 15 0z m30 0 c3 -5 1 -10 -4 -10 -6 0 -11 5 -11 10 0 6 2 10 4 10 3 0 8 -4 11 -10z m60 0 c3 -5 1 -10 -4 -10 -6 0 -11 5 -11 10 0 6 2 10 4 10 3 0 8 -4 11 -10z m65 6 c0 -3 -4 -8 -10 -11 -5 -3 -10 -1 -10 4 0 6 5 11 10 11 6 0 10 -2 10 -4z m73 -6 c-7 -7 -63 -7 -58 0 2 3 17 6 34 5 16 0 27 -2 24 -5z m611 -1 c-2 -3 -137 -6 -300 -6 -164 0 -290 3 -281 6 22 8 586 8 581 0z m3651 1 c3 -6 -1 -7 -9 -4 -18 7 -21 14 -7 14 6 0 13 -4 16 -10z m-7525 -4 c0 -2 -9 -6 -20 -9 -11 -3 -20 -1 -20 4 0 5 9 9 20 9 11 0 20 -2 20 -4z m-30 -76 c0 -22 -4 -40 -8 -40 -5 0 -8 10 -6 23 1 12 3 30 3 40 2 35 11 16 11 -23z m4587 -72 c-3 -8 -6 -5 -6 6 -1 11 2 17 5 13 3 -3 4 -12 1 -19z m9121 9 c7 -5 12 -4 12 2 0 6 7 8 15 5 8 -4 15 -9 15 -13 0 -3 -133 -7 -295 -7 -163 -1 -293 2 -290 5 4 3 90 7 193 9 102 2 187 4 188 5 6 6 151 1 162 -6z m72 0 c0 9 11 11 38 8 97 -14 188 -84 197 -151 6 -44 6 -274 0 -284 -3 -4 0 -11 5 -13 6 -3 6 -5 -1 -3 -8 1 -12 43 -14 126 -3 168 -10 204 -48 244 -32 34 -99 56 -167 56 -22 0 -30 5 -30 18 0 14 2 15 10 2 6 -10 10 -11 10 -3z m-13783 -17 c1 -11 -2 -22 -6 -24 -6 -4 -7 26 -2 42 3 8 7 -1 8 -18z m13150 5 c5 -4 -7 -6 -24 -3 -18 2 -33 2 -33 -2 0 -4 -12 -13 -27 -21 -41 -20 -80 -69 -89 -110 -6 -24 -11 -93 -13 -162 -1 -21 -5 -36 -9 -33 -13 8 -7 189 7 216 16 30 81 100 94 100 5 0 14 6 21 13 14 14 61 15 73 2z m-8547 -32 c0 -5 -5 -15 -10 -23 -7 -12 -9 -10 -7 8 1 19 17 33 17 15z m-4600 -17 c0 -3 -4 -8 -10 -11 -5 -3 -10 -1 -10 4 0 6 5 11 10 11 6 0 10 -2 10 -4z m13604 -7 c15 0 26 -3 23 -5 -7 -7 -366 -8 -373 -2 -2 3 55 6 128 7 72 1 133 3 135 5 2 2 16 1 31 -1 15 -2 40 -4 56 -4z m-364 -9 c0 -3 -25 -6 -55 -6 -60 -1 -97 -16 -132 -52 -30 -30 -30 -11 0 24 14 16 39 29 63 34 44 8 124 8 124 0z m460 2 c0 -4 -13 -7 -29 -7 -16 -1 -28 2 -26 5 5 9 55 11 55 2z m78 -7 c3 -3 -4 -4 -16 -2 -12 2 -24 6 -28 10 -4 3 4 4 16 2 12 -2 25 -7 28 -10z m121 -11 c47 -28 55 -51 55 -156 1 -112 -9 -124 -12 -16 -5 134 -21 163 -102 179 l-35 7 33 1 c19 0 46 -6 61 -15z m-8772 -16 c-3 -8 -6 -5 -6 6 -1 11 2 17 5 13 3 -3 4 -12 1 -19z m-5127 2 c0 -5 -5 -10 -11 -10 -5 0 -7 5 -4 10 3 6 8 10 11 10 2 0 4 -4 4 -10z m4593 -55 c-7 -21 -12 -19 -10 4 0 11 5 18 9 15 4 -3 5 -11 1 -19z m8444 -32 c1 -22 -1 -24 -8 -10 -6 9 -7 22 -4 27 9 14 10 13 12 -17z m-7909 -18 c-1 -20 -4 -38 -8 -40 -4 -2 -5 6 -4 18 1 12 3 30 3 40 1 9 3 17 6 17 2 0 4 -16 3 -35z m-5141 -7 c-3 -8 -6 -5 -6 6 -1 11 2 17 5 13 3 -3 4 -12 1 -19z m13049 -112 c-1 -57 -4 -107 -8 -111 -3 -3 -6 43 -7 104 0 61 4 111 8 111 4 0 7 -47 7 -104z m-13042 59 c-4 -8 -8 -15 -10 -15 -2 0 -4 7 -4 15 0 8 4 15 10 15 5 0 7 -7 4 -15z m5133 -10 c0 -8 -4 -12 -9 -9 -5 3 -6 10 -3 15 9 13 12 11 12 -6z m8440 -51 c32 -31 49 -52 38 -46 -11 6 -31 21 -45 35 -14 13 -37 31 -52 41 -27 17 -27 17 -73 -25 -25 -24 -45 -37 -43 -29 6 28 71 80 100 80 9 0 43 -25 75 -56z m-13572 27 c3 -5 1 -12 -5 -16 -5 -3 -10 1 -10 9 0 18 6 21 15 7z m5133 -27 c0 -17 -3 -22 -8 -13 -5 6 -6 18 -3 26 8 19 11 16 11 -13z m-5136 -44 c-6 -41 -13 -38 -10 4 1 19 5 33 8 31 4 -2 5 -18 2 -35z m4603 10 c3 -5 1 -10 -4 -10 -6 0 -11 5 -11 10 0 6 2 10 4 10 3 0 8 -4 11 -10z m8362 -75 c0 -47 -2 -83 -5 -81 -7 8 -9 166 -2 166 4 0 7 -38 7 -85z m410 64 c-9 -6 -14 -15 -11 -21 5 -7 2 -8 -5 -4 -9 6 -8 13 5 27 9 11 20 17 23 13 3 -3 -2 -10 -12 -15z m593 17 c0 -3 -4 -8 -10 -11 -5 -3 -10 -1 -10 4 0 6 5 11 10 11 6 0 10 -2 10 -4z m-504 -198 c1 -92 -1 -166 -5 -164 -3 2 -6 77 -6 165 0 126 -3 161 -13 161 -7 0 -11 -4 -8 -9 7 -10 -50 -84 -82 -107 -38 -26 -24 0 28 54 28 29 48 52 44 52 -3 0 -2 5 1 11 4 5 14 9 23 7 15 -3 17 -24 18 -170z m143 93 c1 -8 4 -11 7 -8 4 3 18 -3 32 -13 46 -37 71 -16 35 28 -47 55 -52 62 -44 62 13 0 81 -81 81 -96 0 -14 -22 -24 -53 -24 -23 0 -81 43 -71 53 3 3 -5 11 -18 18 -12 6 -26 17 -30 23 -5 7 -8 6 -9 -4 0 -10 -3 -8 -8 5 -5 11 -6 24 -4 28 6 11 81 -55 82 -72z m-9005 53 c3 -8 2 -12 -4 -9 -6 3 -10 10 -10 16 0 14 7 11 14 -7z m8746 -2 c0 -5 -14 -23 -31 -40 -30 -31 -31 -33 -14 -51 16 -19 16 -19 -4 -14 -29 7 -27 41 4 65 13 10 24 22 24 26 -2 15 1 22 11 22 6 0 10 -4 10 -8z m-13349 -65 c-1 -28 -5 -54 -7 -57 -3 -2 -4 23 -3 58 1 34 5 60 8 57 2 -3 4 -29 2 -58z m5139 59 c0 -3 -4 -8 -10 -11 -5 -3 -10 -1 -10 4 0 6 5 11 10 11 6 0 10 -2 10 -4z m8405 -81 c0 -32 -4 -55 -11 -55 -10 0 -10 70 1 98 8 22 10 13 10 -43z m-500 -75 c0 -66 -2 -120 -6 -120 -3 0 -6 54 -6 120 0 66 3 120 6 120 4 0 6 -54 6 -120z m985 83 c0 -20 -3 -33 -7 -30 -9 10 -10 67 0 67 4 0 7 -16 7 -37z m-9425 18 c3 -5 2 -12 -3 -15 -5 -3 -9 1 -9 9 0 17 3 19 12 6z m534 -81 c1 -44 -2 -80 -6 -80 -5 0 -8 36 -8 80 0 44 3 80 6 80 4 0 7 -36 8 -80z m-536 37 c3 -8 1 -20 -4 -28 -6 -10 -9 -7 -9 14 0 29 5 35 13 14z m8365 -44 c1 -14 -1 -23 -5 -19 -10 10 -14 46 -5 46 4 0 9 -12 10 -27z m1062 7 c0 -11 -4 -20 -8 -20 -4 0 -8 9 -8 20 0 11 4 20 8 20 4 0 8 -9 8 -20z m-14033 -27 c-3 -10 -5 -4 -5 12 0 17 2 24 5 18 2 -7 2 -21 0 -30z m4605 -34 c-1 -22 -3 -44 -6 -47 -3 -3 -6 19 -6 48 0 29 3 51 6 47 4 -3 6 -25 6 -48z m9368 37 c0 -3 -4 -8 -10 -11 -5 -3 -10 -1 -10 4 0 6 5 11 10 11 6 0 10 -2 10 -4z m62 -24 c-7 -2 -10 -7 -7 -12 3 -4 6 -75 6 -158 2 -139 1 -152 -20 -186 -13 -20 -42 -50 -66 -66 -41 -28 -50 -30 -135 -30 -50 0 -89 3 -86 8 2 4 39 7 82 6 78 -1 92 4 147 40 52 35 57 57 62 256 2 80 4 149 4 153 1 5 6 5 13 1 9 -6 9 -9 0 -12z m-1062 -22 c0 -16 -4 -30 -9 -30 -5 0 -8 14 -7 30 0 17 4 30 8 30 5 0 8 -13 8 -30z m573 17 c3 -8 2 -19 -3 -26 -5 -9 -9 -4 -12 13 -5 27 6 36 15 13z m-13546 -34 c-3 -10 -5 -4 -5 12 0 17 2 24 5 18 2 -7 2 -21 0 -30z m5140 -25 c-3 -8 -6 -5 -6 6 -1 11 2 17 5 13 3 -3 4 -12 1 -19z m8413 8 c0 -3 -4 -8 -10 -11 -5 -3 -10 -1 -10 4 0 6 5 11 10 11 6 0 10 -2 10 -4z m417 -15 c0 -11 -5 -18 -9 -15 -4 3 -5 11 -1 19 7 21 12 19 10 -4z m-13965 -37 c-6 -35 -12 -29 -10 11 1 20 4 31 8 25 4 -6 5 -22 2 -36z m12967 -33 c-2 -44 -2 -78 1 -76 3 2 5 -14 5 -36 0 -50 -14 -51 -17 -1 -5 117 -3 192 5 192 5 0 8 -34 6 -79z m-8367 6 c-8 -31 -19 0 -13 36 4 31 5 31 11 7 3 -14 4 -33 2 -43z m8940 18 c-2 -14 -6 -25 -8 -25 -2 0 -4 11 -4 25 0 14 4 25 9 25 4 0 6 -11 3 -25z m-496 -5 c0 -11 -4 -20 -8 -20 -4 0 -8 9 -8 20 0 11 4 20 8 20 4 0 8 -9 8 -20z m920 -15 c0 -19 -2 -35 -6 -35 -6 0 -6 56 -1 68 4 8 6 -2 7 -33z m-492 -10 c-8 -20 19 -29 44 -16 17 9 19 8 15 -9 -4 -14 -14 -20 -34 -20 -16 0 -29 3 -29 8 0 4 -3 17 -6 30 -4 13 -2 22 5 22 5 0 8 -7 5 -15z m-13471 -10 c4 -8 2 -17 -3 -20 -6 -4 -10 3 -10 14 0 25 6 27 13 6z m1086 -7 c-1 -17 -2 -19 -6 -5 -3 11 -14 17 -31 16 l-27 -1 25 -8 25 -8 -27 -1 c-16 -1 -28 4 -28 9 0 6 -4 10 -10 10 -5 0 -7 -7 -4 -15 4 -11 2 -13 -9 -10 -11 5 -14 -3 -12 -44 1 -28 -2 -51 -7 -51 -9 0 -11 11 -8 60 3 50 24 70 77 70 38 0 43 -2 42 -22z m3191 8 c-7 -7 -13 -7 -20 0 -6 6 -3 10 10 10 13 0 16 -4 10 -10z m61 -4 c-7 -2 -18 1 -23 6 -8 8 -4 9 13 5 13 -4 18 -8 10 -11z m1009 14 c0 -2 -6 -9 -14 -15 -11 -9 -16 -9 -22 0 -4 7 -3 9 4 5 6 -3 13 -2 17 4 6 10 15 14 15 6z m401 -13 c13 -16 12 -17 -3 -4 -17 13 -22 21 -14 21 2 0 10 -8 17 -17z m140 0 c13 -16 12 -17 -3 -4 -10 7 -18 15 -18 17 0 8 8 3 21 -13z m339 13 c0 -2 -6 -9 -14 -15 -11 -9 -16 -9 -22 0 -4 7 -3 9 4 5 6 -3 13 -2 17 4 6 10 15 14 15 6z m218 -21 c-3 -3 -9 2 -12 12 -6 14 -5 15 5 6 7 -7 10 -15 7 -18z m70 12 c14 4 14 3 2 -5 -16 -12 -30 -7 -29 11 0 9 2 9 5 0 3 -7 13 -9 22 -6z m186 -7 c-6 -6 -15 -5 -24 1 -13 9 -12 10 3 5 9 -3 17 0 17 6 0 6 3 8 7 5 4 -4 2 -12 -3 -17z m133 -2 c-3 -8 -6 -5 -6 6 -1 11 2 17 5 13 3 -3 4 -12 1 -19z m142 13 c10 -7 7 -9 -12 -8 -14 1 -23 5 -20 10 6 9 15 9 32 -2z m71 -1 c0 -5 -2 -10 -4 -10 -3 0 -8 5 -11 10 -3 6 -1 10 4 10 6 0 11 -4 11 -10z m160 1 c0 -7 -138 -6 -145 1 -3 3 29 5 70 5 41 1 75 -2 75 -6z m147 2 c-7 -6 -128 -6 -134 1 -3 3 27 5 67 5 39 0 70 -3 67 -6z m33 -3 c0 -5 -4 -10 -10 -10 -5 0 -10 5 -10 10 0 6 5 10 10 10 6 0 10 -4 10 -10z m-6200 -8 c0 -5 -7 -9 -15 -9 -8 0 -12 4 -9 9 3 4 9 8 15 8 5 0 9 -4 9 -8z m90 3 c0 -2 -6 -8 -13 -14 -10 -8 -14 -7 -14 2 0 8 6 14 14 14 7 0 13 -1 13 -2z m353 -2 c-7 -2 -19 -2 -25 0 -7 3 -2 5 12 5 14 0 19 -2 13 -5z m237 1 c0 -8 -19 -13 -24 -6 -3 5 1 9 9 9 8 0 15 -2 15 -3z m80 0 c0 -8 -19 -13 -24 -6 -3 5 1 9 9 9 8 0 15 -2 15 -3z m77 0 c-3 -3 -12 -4 -19 -1 -8 3 -5 6 6 6 11 1 17 -2 13 -5z m80 0 c-3 -3 -12 -4 -19 -1 -8 3 -5 6 6 6 11 1 17 -2 13 -5z m293 0 c0 -8 -19 -13 -24 -6 -3 5 1 9 9 9 8 0 15 -2 15 -3z m160 0 c0 -8 -19 -13 -24 -6 -3 5 1 9 9 9 8 0 15 -2 15 -3z m190 0 c0 -8 -19 -13 -24 -6 -3 5 1 9 9 9 8 0 15 -2 15 -3z m160 0 c0 -8 -19 -13 -24 -6 -3 5 1 9 9 9 8 0 15 -2 15 -3z m400 0 c0 -8 -19 -13 -24 -6 -3 5 1 9 9 9 8 0 15 -2 15 -3z m385 -4 c3 -6 -1 -7 -9 -4 -18 7 -21 14 -7 14 6 0 13 -4 16 -10z m55 5 c0 -7 -30 -13 -34 -7 -3 4 4 9 15 9 10 1 19 0 19 -2z m80 0 c0 -7 -30 -13 -34 -7 -3 4 4 9 15 9 10 1 19 0 19 -2z m37 -1 c-3 -3 -12 -4 -19 -1 -8 3 -5 6 6 6 11 1 17 -2 13 -5z m53 0 c0 -8 -19 -13 -24 -6 -3 5 1 9 9 9 8 0 15 -2 15 -3z m60 0 c0 -8 -19 -13 -24 -6 -3 5 1 9 9 9 8 0 15 -2 15 -3z m180 0 c0 -8 -19 -13 -24 -6 -3 5 1 9 9 9 8 0 15 -2 15 -3z m1095 -4 c3 -6 -1 -7 -9 -4 -18 7 -21 14 -7 14 6 0 13 -4 16 -10z m175 4 c0 -8 -19 -13 -24 -6 -3 5 1 9 9 9 8 0 15 -2 15 -3z m90 -4 c-18 -12 -30 -13 -30 -2 0 4 10 9 22 9 18 2 20 0 8 -7z m595 0 c3 -6 -1 -7 -9 -4 -18 7 -21 14 -7 14 6 0 13 -4 16 -10z m649 -2 c-3 -4 -11 -5 -19 -1 -21 7 -19 12 4 10 11 0 18 -5 15 -9z m3431 2 c3 -6 -1 -7 -9 -4 -18 7 -21 14 -7 14 6 0 13 -4 16 -10z m2852 -5 c0 -8 -4 -15 -9 -15 -4 0 -8 7 -8 15 0 8 4 15 8 15 5 0 9 -7 9 -15z m-11900 -1 c-3 -3 -12 -4 -19 -1 -8 3 -5 6 6 6 11 1 17 -2 13 -5z m6347 -40 c3 -8 2 -12 -4 -9 -6 3 -10 10 -10 16 0 14 7 11 14 -7z m5556 6 c0 -5 -4 -10 -10 -10 -5 0 -10 5 -10 10 0 6 5 10 10 10 6 0 10 -4 10 -10z m920 0 c0 -5 -4 -10 -10 -10 -5 0 -10 5 -10 10 0 6 5 10 10 10 6 0 10 -4 10 -10z m-13967 -30 c-3 -11 -7 -20 -9 -20 -2 0 -4 9 -4 20 0 11 4 20 9 20 5 0 7 -9 4 -20z m13047 -10 c0 -11 -4 -20 -9 -20 -5 0 -7 9 -4 20 3 11 7 20 9 20 2 0 4 -9 4 -20z m915 -31 c0 -56 -42 -95 -110 -104 -74 -10 -375 -12 -375 -3 0 4 21 8 48 9 124 2 300 8 328 11 57 7 83 32 90 88 8 58 19 57 19 -1z m-615 3 c0 -8 3 -12 8 -8 4 4 7 13 7 19 0 14 35 17 53 4 7 -6 12 -6 12 0 0 5 8 9 18 9 10 0 19 -5 19 -11 0 -7 -19 -11 -45 -11 -25 1 -47 -3 -49 -9 -2 -6 22 -10 56 -11 40 0 58 3 54 10 -4 7 -1 7 8 0 8 -7 31 -11 51 -10 20 1 35 -1 33 -5 -3 -4 -53 -6 -112 -4 -201 4 -193 3 -193 24 0 14 8 21 28 23 37 5 52 -1 52 -20z m358 19 c15 -1 22 -7 22 -21 0 -23 -31 -33 -81 -27 -28 3 -26 4 13 5 59 2 71 19 18 24 -46 4 -84 -7 -75 -22 3 -5 1 -10 -5 -10 -6 0 -10 8 -8 17 2 15 -5 18 -42 19 -66 3 -70 3 -70 12 0 6 111 7 228 3z m-13705 -31 c-3 -11 -7 -20 -9 -20 -2 0 -4 9 -4 20 0 11 4 20 9 20 5 0 7 -9 4 -20z m984 -6 c-3 -3 -12 -4 -19 -1 -8 3 -5 6 6 6 11 1 17 -2 13 -5z m3 -35 c0 -5 -4 -9 -10 -9 -5 0 -10 7 -10 16 0 8 5 12 10 9 6 -3 10 -10 10 -16z m11997 -9 c3 -17 14 -35 24 -40 9 -6 23 -16 31 -23 21 -21 70 -37 116 -39 23 -1 42 -5 42 -8 0 -7 -64 -5 -100 3 -52 11 -88 31 -103 56 -26 44 -38 81 -27 81 6 0 13 -14 17 -30z m95 -3 c40 -37 56 -40 210 -40 59 -1 105 -4 102 -8 -2 -4 -61 -7 -132 -8 -117 0 -130 2 -168 24 -23 13 -44 34 -47 45 -3 11 -4 20 -3 20 1 0 18 -15 38 -33z m-13085 -425 c-1 -81 -3 -12 -3 153 0 165 2 231 3 147 2 -84 2 -219 0 -300z m8498 403 c-2 -29 -11 -43 -12 -17 -1 18 4 42 10 42 1 0 2 -11 2 -25z m-7507 3 c-2 -7 -7 -16 -13 -20 -6 -5 -6 -8 2 -8 6 0 11 -9 10 -20 -1 -11 -5 -20 -10 -20 -5 0 -7 7 -4 15 4 8 2 17 -2 20 -11 6 -2 45 10 45 5 0 8 -6 7 -12z m12452 -30 c0 -4 -7 -8 -15 -8 -8 0 -15 4 -15 8 0 5 7 9 15 9 8 0 15 -4 15 -9z m30 2 c0 -5 -4 -10 -10 -10 -5 0 -10 5 -10 10 0 6 5 10 10 10 6 0 10 -4 10 -10z m-4977 -40 c3 -11 2 -22 -2 -24 -4 -3 -8 6 -9 20 -2 29 4 31 11 4z m-7506 -25 c0 -8 -4 -12 -9 -9 -4 3 -8 9 -8 15 0 5 4 9 8 9 5 0 9 -7 9 -15z m12419 2 c4 -4 -30 -7 -75 -7 -45 0 -80 4 -77 8 6 9 143 8 152 -1z m114 3 c0 -4 -22 -7 -50 -7 -27 -1 -50 1 -50 5 0 4 23 7 50 7 28 0 50 -2 50 -5z m30 0 c0 -5 -5 -10 -11 -10 -5 0 -7 5 -4 10 3 6 8 10 11 10 2 0 4 -4 4 -10z m110 -1 c0 -4 -22 -6 -49 -6 -27 1 -48 4 -46 7 5 9 95 7 95 -1z m50 -1 c0 -4 -9 -8 -20 -8 -11 0 -20 4 -20 8 0 4 9 8 20 8 11 0 20 -4 20 -8z m-12725 -69 c-4 -5 -12 -9 -18 -8 -9 0 -8 2 1 6 6 2 9 10 6 15 -4 7 -2 8 5 4 6 -4 9 -12 6 -17z m7510 11 c3 -5 1 -10 -4 -10 -6 0 -11 5 -11 10 0 6 2 10 4 10 3 0 8 -4 11 -10z m3520 -20 c-3 -5 -2 -10 4 -10 5 0 13 5 17 11 4 8 9 8 17 0 7 -7 14 -7 24 0 10 9 13 8 13 -3 0 -8 -6 -15 -12 -15 -7 -1 -35 -2 -63 -4 -82 -4 -158 -57 -170 -118 -3 -18 -17 -267 -18 -323 0 -16 -4 -28 -8 -28 -10 0 -4 329 7 355 24 62 133 149 163 131 5 -4 12 -2 16 4 3 5 8 10 11 10 3 0 2 -4 -1 -10z m242 -4 c4 -4 -8 -7 -27 -6 -19 0 -54 0 -77 -1 -24 -2 -46 1 -50 6 -5 4 -2 5 5 1 6 -4 12 -4 12 1 0 10 127 9 137 -1z m83 1 c0 -4 -15 -7 -34 -5 -19 1 -33 4 -31 8 5 8 65 6 65 -3z m40 3 c0 -5 -8 -10 -17 -10 -15 0 -16 2 -3 10 19 12 20 12 20 0z m40 0 c0 -5 -8 -10 -17 -10 -15 0 -16 2 -3 10 19 12 20 12 20 0z m45 0 c3 -5 1 -10 -4 -10 -6 0 -11 5 -11 10 0 6 2 10 4 10 3 0 8 -4 11 -10z m95 -1 c0 -4 -18 -7 -40 -7 -22 0 -40 2 -40 6 0 4 18 7 40 7 22 0 40 -3 40 -6z m220 -23 c22 -14 43 -26 47 -26 14 -1 40 -44 48 -80 10 -44 15 -200 6 -200 -4 0 -7 24 -8 53 -1 78 -9 141 -21 163 -10 19 -78 85 -87 84 -3 0 -15 2 -28 5 -25 6 -99 14 -140 14 -16 1 -26 4 -23 9 2 4 41 7 86 6 69 -2 86 -6 120 -28z m496 11 c-67 -6 -112 -5 -118 1 -6 6 7 8 34 7 24 0 68 2 98 5 30 3 64 3 75 0 11 -2 -29 -9 -89 -13z m134 8 c11 -13 10 -14 -4 -9 -9 3 -16 10 -16 15 0 13 6 11 20 -6z m116 2 c4 -4 -16 -7 -44 -7 -29 0 -52 3 -52 8 0 9 87 8 96 -1z m142 0 c1 -4 0 -7 -3 -7 -3 0 -32 0 -65 0 -33 0 -60 3 -60 8 0 9 124 8 128 -1z m67 -6 c-3 -6 -11 -8 -17 -5 -6 4 -5 9 3 15 16 10 23 4 14 -10z m116 3 c33 0 59 -8 92 -30 43 -27 84 -81 70 -94 -3 -3 -8 1 -11 9 -6 19 -62 76 -62 65 0 -5 -4 -4 -8 1 -18 26 -61 43 -97 40 -43 -4 -59 1 -49 17 4 6 9 6 13 1 3 -5 27 -9 52 -9z m659 4 c0 -5 -19 -8 -42 -8 -108 -2 -210 -10 -227 -20 -24 -12 -31 -13 -31 -1 0 12 26 20 86 27 26 2 49 6 50 7 6 6 164 1 164 -5z m80 -3 c0 -2 -17 -3 -37 -3 -28 0 -33 2 -18 8 17 6 55 3 55 -5z m287 1 c4 -4 -57 -6 -135 -5 -78 1 -142 5 -142 8 0 8 269 6 277 -3z m47 6 c2 -4 -5 -9 -17 -9 -17 -2 -19 0 -7 7 18 12 18 12 24 2z m144 -25 c23 -15 42 -32 42 -37 0 -6 6 -9 12 -7 19 3 59 -83 54 -115 -2 -16 -1 -28 3 -28 10 0 8 -616 -1 -626 -12 -11 -10 -26 2 -19 12 8 13 -5 0 -25 -5 -9 -5 -17 0 -20 18 -11 -53 -114 -91 -133 -50 -24 -274 -44 -285 -25 -3 4 -15 3 -27 -3 -15 -9 -22 -9 -25 -1 -2 7 -11 8 -28 2 -16 -6 -24 -6 -24 1 0 6 -5 7 -12 3 -18 -12 -78 -11 -78 0 0 7 56 12 168 13 202 1 256 6 304 26 36 15 68 59 75 102 11 79 17 559 8 713 -3 52 -9 69 -35 102 -37 46 -115 90 -160 90 -17 0 -29 3 -27 8 11 17 84 5 125 -21z m-1298 13 c0 -5 -5 -10 -11 -10 -5 0 -7 5 -4 10 3 6 8 10 11 10 2 0 4 -4 4 -10z m-640 -12 c0 -6 -3 -9 -6 -5 -4 3 -22 0 -40 -8 -38 -15 -47 -4 -11 13 30 14 57 15 57 0z m-4637 -28 c3 -11 2 -22 -2 -24 -4 -3 -8 6 -9 20 -2 29 4 31 11 4z m5686 -13 c-41 -34 -48 -72 -51 -284 -2 -79 -7 -143 -11 -143 -5 0 -5 -6 0 -12 4 -7 8 -103 9 -213 1 -145 5 -207 14 -225 7 -14 14 -27 14 -30 2 -22 99 -75 117 -64 5 3 9 2 9 -3 0 -4 72 -8 159 -7 147 0 184 -5 131 -19 -11 -3 -20 -1 -20 3 0 5 -13 5 -30 0 -19 -5 -30 -5 -30 1 0 6 -5 7 -11 3 -15 -9 -201 -8 -231 2 -47 15 -95 53 -113 91 -24 48 -25 53 -28 138 -2 39 -7 77 -12 84 -5 9 -4 12 2 8 13 -8 12 71 0 91 -5 6 -4 12 0 12 5 0 9 41 9 90 -1 50 3 90 7 90 5 0 5 5 1 11 -8 14 -8 221 1 280 8 56 51 119 80 118 6 0 -2 -10 -16 -22z m-1157 -9 c-21 -24 -40 -86 -37 -125 1 -12 -1 -20 -4 -18 -3 1 -6 -63 -6 -143 1 -156 -2 -185 -16 -176 -5 3 -6 11 -2 17 9 15 12 47 4 47 -8 0 -6 54 3 68 4 7 4 12 -1 12 -4 0 -7 19 -7 42 4 117 8 158 17 158 6 0 6 5 -1 13 -16 20 -3 60 30 94 18 18 34 33 37 33 2 0 -5 -10 -17 -22z m-787 1 c33 3 77 4 98 0 24 -4 37 -2 38 5 0 7 2 7 5 1 2 -6 62 -9 154 -8 108 1 150 -2 150 -10 0 -8 3 -8 8 1 7 10 16 10 43 1 34 -12 80 -39 66 -39 -4 0 -1 -10 6 -22 8 -13 13 -45 12 -71 0 -27 3 -51 7 -53 5 -3 5 -11 1 -17 -11 -17 -11 -30 1 -46 8 -11 8 -13 -1 -7 -9 5 -12 0 -11 -18 1 -15 7 -26 13 -27 5 0 2 -4 -9 -8 -17 -7 -17 -8 -2 -24 16 -16 16 -17 -1 -17 -16 0 -18 11 -19 128 -1 159 -5 180 -47 196 -40 16 -83 19 -367 19 -276 0 -410 -7 -438 -22 -30 -16 -38 -44 -41 -140 -1 -19 -4 -31 -8 -28 -6 7 -6 89 1 117 17 70 39 82 155 87 47 2 87 5 89 8 3 2 12 0 21 -5 9 -4 43 -5 76 -1z m2435 -4 c0 -7 -48 -10 -130 -10 -71 0 -130 -2 -130 -5 0 -3 -24 -6 -53 -6 -100 -2 -113 -4 -131 -17 -10 -7 -19 -25 -19 -40 -1 -15 -4 -27 -7 -27 -3 0 -5 -38 -5 -85 1 -53 -3 -85 -10 -85 -6 0 -9 34 -7 97 3 103 21 162 51 165 9 0 27 3 41 4 14 2 86 6 160 10 74 3 136 7 137 8 8 7 103 -1 103 -9z m367 -10 c38 -25 47 -35 61 -70 17 -42 22 -335 5 -335 -8 0 -12 24 -13 78 -1 102 -7 243 -12 262 -11 49 -74 66 -247 65 -83 0 -131 3 -131 10 0 5 -5 3 -10 -5 -9 -13 -10 -13 -10 0 0 14 23 15 164 14 142 -1 168 -3 193 -19z m-1780 1 c4 -3 -11 -6 -33 -7 -78 -1 -115 -8 -145 -30 -17 -11 -33 -19 -35 -16 -9 9 34 47 54 48 23 1 53 7 57 11 6 6 96 1 102 -6z m73 3 c0 -3 -13 -6 -30 -7 -16 0 -30 2 -30 6 0 4 14 7 30 7 17 1 30 -2 30 -6z m90 1 c0 -4 -7 -7 -15 -6 -23 3 -26 12 -5 13 11 1 20 -2 20 -7z m70 1 c0 -3 -13 -7 -30 -7 -16 -1 -30 1 -30 5 0 3 14 7 30 7 17 1 30 -1 30 -5z m239 -11 c0 -8 -2 -10 -5 -5 -2 6 -49 10 -114 9 -60 -1 -110 2 -110 6 0 4 52 7 115 6 97 0 115 -3 114 -16z m136 6 c17 -2 33 -4 36 -5 3 0 20 -13 37 -27 32 -27 32 -28 32 -115 0 -49 -4 -89 -8 -89 -4 0 -8 19 -8 43 -3 160 -12 171 -134 182 -25 2 -53 4 -62 5 -10 0 -18 4 -18 9 0 7 42 6 125 -3z m-12880 -24 c-3 -3 -11 0 -18 7 -9 10 -8 11 6 5 10 -3 15 -9 12 -12z m7508 -2 c3 -11 2 -20 -3 -20 -4 0 -10 9 -13 20 -3 11 -2 20 3 20 4 0 10 -9 13 -20z m-7503 -30 c0 -5 -5 -10 -11 -10 -5 0 -7 5 -4 10 3 6 8 10 11 10 2 0 4 -4 4 -10z m13038 -12 c1 -7 3 -115 5 -240 4 -204 2 -228 -12 -227 -10 0 -12 2 -3 6 6 2 12 9 12 14 0 6 -4 8 -8 5 -5 -3 -9 1 -9 9 0 8 4 15 9 15 4 0 8 5 8 11 0 5 -3 8 -8 6 -4 -3 -7 8 -7 24 -1 16 3 29 8 29 4 0 5 6 1 12 -11 17 -15 348 -5 348 4 0 8 -6 9 -12z m-5538 -98 c0 -55 -3 -100 -7 -100 -5 0 -7 45 -5 100 2 55 5 100 8 100 2 0 4 -45 4 -100z m4557 85 c0 -8 -4 -12 -9 -9 -5 3 -6 10 -3 15 9 13 12 11 12 -6z m-12060 -31 c0 -20 -3 -31 -6 -25 -6 9 -7 43 -2 59 4 10 7 -4 8 -34z m13873 15 c36 0 50 -4 54 -16 11 -27 -8 -35 -88 -35 -86 0 -119 11 -38 13 29 1 61 3 72 4 11 1 28 3 38 4 12 1 14 3 4 9 -7 5 -39 8 -71 8 -46 -1 -57 2 -49 11 6 7 15 10 20 7 6 -4 32 -6 58 -5z m-2710 -19 c-10 -18 -6 -19 57 -23 l68 -3 -72 -2 c-66 -2 -73 0 -73 17 0 16 8 25 28 30 1 1 -2 -8 -8 -19z m40 16 c0 -3 -4 -8 -10 -11 -5 -3 -10 -1 -10 4 0 6 5 11 10 11 6 0 10 -2 10 -4z m40 -4 c0 -5 -7 -9 -15 -9 -8 0 -15 4 -15 9 0 4 7 8 15 8 8 0 15 -4 15 -8z m43 1 c-7 -2 -19 -2 -25 0 -7 3 -2 5 12 5 14 0 19 -2 13 -5z m70 0 c-7 -2 -19 -2 -25 0 -7 3 -2 5 12 5 14 0 19 -2 13 -5z m57 3 c0 -2 -9 -6 -20 -9 -11 -3 -18 -1 -14 4 5 9 34 13 34 5z m69 0 c-8 -8 -60 -15 -55 -8 2 4 17 9 32 10 15 1 25 0 23 -2z m98 -5 c6 0 9 -9 6 -19 -4 -15 -16 -19 -80 -20 -87 -2 -93 4 -13 13 62 7 79 15 32 15 -18 0 -32 4 -32 8 0 7 40 8 87 3z m1990 2 c-3 -2 -19 -6 -37 -8 -35 -5 -54 -15 -27 -15 10 0 17 -3 17 -7 0 -5 34 -7 76 -5 42 2 80 0 85 -5 4 -4 -36 -8 -91 -8 -54 0 -102 4 -107 8 -10 11 -11 30 -2 37 9 6 92 9 86 3z m63 3 c0 -2 -11 -6 -25 -8 -14 -3 -25 -1 -25 3 0 5 11 9 25 9 14 0 25 -2 25 -4z m50 -4 c0 -4 -9 -8 -20 -8 -11 0 -20 4 -20 8 0 4 9 8 20 8 11 0 20 -4 20 -8z m89 4 c-8 -8 -69 -14 -69 -7 0 4 16 8 36 9 20 1 35 0 33 -2z m-1712 -21 c0 -8 -4 -12 -9 -9 -5 3 -6 10 -3 15 9 13 12 11 12 -6z m-687 -21 c0 -2 -19 -4 -42 -3 -31 0 -37 3 -24 8 18 7 66 3 66 -5z m50 1 c0 -2 -9 -3 -19 -2 -11 0 -18 5 -15 9 4 6 34 0 34 -7z m2313 -2 c-7 -2 -19 -2 -25 0 -7 3 -2 5 12 5 14 0 19 -2 13 -5z m-1677 -63 c1 -33 -3 -60 -7 -60 -8 0 -9 97 -2 113 8 14 9 7 9 -53z m478 11 c17 -19 28 -99 14 -107 -4 -3 -3 -15 1 -27 5 -12 5 -34 1 -49 -5 -14 -6 -29 -2 -32 10 -11 8 -124 -3 -120 -14 6 -14 227 0 236 6 5 6 8 -3 8 -7 0 -11 11 -11 28 3 45 0 52 -20 52 -24 0 -28 -13 -27 -83 1 -34 -3 -57 -10 -57 -6 0 -9 18 -8 43 1 23 3 52 3 64 1 12 8 28 16 36 8 8 11 17 8 21 -4 3 0 6 9 6 8 0 23 -8 32 -19z m-1626 -51 c-1 -22 -3 -38 -6 -36 -7 8 -8 76 0 76 4 0 7 -18 6 -40z m-10908 10 c0 -5 -2 -10 -4 -10 -3 0 -8 5 -11 10 -3 6 -1 10 4 10 6 0 11 -4 11 -10z m11339 -14 c9 -11 6 -13 -14 -13 -23 0 -122 -74 -151 -113 -7 -8 -21 -26 -33 -39 -28 -32 -27 -55 4 -79 13 -11 21 -22 18 -26 -3 -3 -1 -6 5 -6 7 0 12 -6 12 -12 0 -19 -80 74 -80 94 0 9 19 34 42 55 22 21 60 57 82 80 32 32 88 72 102 73 1 0 7 -6 13 -14z m1638 -42 c1 -25 0 -44 -3 -42 -7 8 -12 88 -5 88 4 0 8 -21 8 -46z m763 31 c0 -8 6 -15 13 -15 8 0 22 -9 32 -20 10 -11 15 -20 12 -20 -4 0 -10 0 -14 0 -5 0 -8 6 -8 13 0 6 -8 11 -18 9 -9 -2 -17 1 -17 6 0 15 -48 33 -56 21 -7 -12 15 -59 28 -59 16 0 58 -46 63 -68 2 -13 0 -20 -6 -17 -5 4 -9 2 -9 -3 0 -13 -63 -9 -67 5 -3 7 5 10 21 9 42 -5 53 10 25 33 -13 11 -27 20 -31 21 -13 0 -50 71 -44 85 8 21 76 21 76 0z m-13740 -25 c0 -5 -5 -10 -11 -10 -5 0 -7 5 -4 10 3 6 8 10 11 10 2 0 4 -4 4 -10z m7498 -16 c0 -17 -3 -22 -8 -13 -5 6 -6 18 -3 26 8 19 11 16 11 -13z m4557 -45 c1 -33 -2 -62 -5 -64 -4 -3 -7 27 -7 65 0 85 11 84 12 -1z m1142 31 c-2 -21 0 -41 5 -44 5 -2 3 -3 -4 -2 -17 3 -19 86 -2 86 3 0 3 -18 1 -40z m-2290 1 c0 -11 -5 -18 -9 -15 -4 3 -5 11 -1 19 7 21 12 19 10 -4z m443 15 c0 -3 -4 -8 -10 -11 -5 -3 -10 -1 -10 4 0 6 5 11 10 11 6 0 10 -2 10 -4z m-12343 -38 c-3 -7 -5 -2 -5 12 0 14 2 19 5 13 2 -7 2 -19 0 -25z m12318 3 c-6 -5 -17 -11 -25 -13 -18 -4 -39 -28 -40 -45 0 -8 16 -11 50 -9 30 1 49 -2 47 -7 -2 -6 -23 -11 -48 -11 -42 -1 -69 12 -69 32 0 14 46 53 53 45 4 -3 7 -1 7 5 0 7 8 12 17 12 11 0 13 -3 8 -9z m2495 5 c0 -3 -4 -8 -10 -11 -5 -3 -10 -1 -10 4 0 6 5 11 10 11 6 0 10 -2 10 -4z m-6323 -38 c4 -28 -6 -18 -12 12 -2 12 -1 20 2 16 4 -4 8 -16 10 -28z m4400 0 c-3 -7 -5 -2 -5 12 0 14 2 19 5 13 2 -7 2 -19 0 -25z m-11897 12 c0 -5 -2 -10 -4 -10 -3 0 -8 5 -11 10 -3 6 -1 10 4 10 6 0 11 -4 11 -10z m12980 -12 c0 -18 -2 -20 -9 -8 -6 8 -7 18 -5 22 9 14 14 9 14 -14z m-13973 -35 c-3 -10 -5 -2 -5 17 0 19 2 27 5 18 2 -10 2 -26 0 -35z m12821 33 c-15 -9 -15 -11 0 -23 15 -12 15 -12 -3 -6 -19 7 -19 6 -3 -19 13 -19 14 -28 5 -37 -9 -9 -8 -14 3 -21 10 -7 11 -10 3 -10 -15 0 -13 -21 2 -32 6 -5 5 -8 -2 -8 -7 0 -10 -6 -7 -14 10 -25 10 -166 0 -166 -4 0 -3 -6 3 -13 6 -8 8 -17 4 -21 -4 -4 -8 -21 -8 -39 -1 -44 -13 -73 -40 -103 -21 -23 -32 -26 -105 -28 -44 -1 -86 1 -92 5 -6 4 2 7 18 7 102 0 162 20 184 62 16 31 34 283 21 296 -8 8 -10 34 -2 34 4 0 8 7 8 15 0 8 -4 15 -9 15 -5 0 -6 6 -1 13 11 17 13 37 4 37 -6 0 -7 30 -2 61 1 3 9 6 18 6 16 0 16 -1 1 -11z m650 -16 c-1 -16 -4 -30 -8 -30 -5 0 -6 45 -1 58 5 11 10 -4 9 -28z m720 -30 c0 -22 -4 -40 -8 -40 -3 0 -6 10 -4 23 1 12 3 30 3 40 2 35 10 16 9 -23z m699 -2 c15 -22 19 -36 13 -47 -15 -27 -111 -121 -123 -121 -8 0 -8 3 1 9 8 4 12 10 10 12 -1 3 16 22 40 43 66 60 70 72 32 112 -24 24 -28 32 -14 28 10 -3 29 -19 41 -36z m-1999 2 c1 -16 -1 -30 -6 -30 -6 0 -8 41 -3 58 3 9 7 -3 9 -28z m-4399 -30 c-1 -28 -5 -46 -8 -41 -7 11 -2 91 5 91 3 0 4 -23 3 -50z m4025 38 c79 4 106 -8 106 -48 0 -17 -5 -30 -12 -31 -87 -5 -158 -5 -158 1 0 4 33 8 72 9 40 1 73 3 74 4 1 1 4 11 6 22 3 22 3 23 -139 28 -51 2 -96 7 -100 11 -4 5 11 7 35 4 24 -2 42 1 43 7 0 6 2 6 5 0 2 -6 32 -9 68 -7z m2001 1 c90 7 155 5 155 -4 0 -6 -51 -11 -131 -11 -135 -2 -163 -10 -139 -39 7 -8 19 -15 26 -15 8 0 14 -4 14 -9 0 -16 -41 -3 -56 16 -25 33 -13 57 31 63 22 3 44 4 50 1 5 -3 28 -4 50 -2z m-2617 -39 c0 -22 -2 -40 -6 -40 -4 0 -7 12 -6 28 1 15 3 33 3 40 2 29 9 9 9 -28z m-69 -75 c1 -58 -2 -105 -7 -105 -5 0 -8 47 -8 105 1 58 4 105 7 105 3 0 7 -47 8 -105z m3281 90 c0 -8 -4 -15 -10 -15 -5 0 -10 7 -10 15 0 8 5 15 10 15 6 0 10 -7 10 -15z m-15113 -27 c-3 -7 -5 -2 -5 12 0 14 2 19 5 13 2 -7 2 -19 0 -25z m13050 12 c1 -11 -2 -20 -5 -20 -4 0 -8 9 -9 20 -1 11 2 20 5 20 4 0 8 -9 9 -20z m428 14 c-5 -2 -9 -23 -8 -46 3 -54 -6 -98 -18 -98 -6 0 -35 24 -65 54 -57 55 -91 65 -78 22 4 -11 9 -23 13 -26 7 -6 13 -30 7 -30 -2 0 -14 15 -25 34 -28 45 -18 72 26 67 6 -1 33 -22 59 -47 41 -38 50 -43 59 -30 6 8 10 35 9 60 -2 38 1 46 14 45 9 0 13 -2 7 -5z m495 -24 c0 -5 -4 -10 -10 -10 -5 0 -10 5 -10 10 0 6 5 10 10 10 6 0 10 -4 10 -10z m-255 -28 c7 -19 -21 -59 -55 -80 -22 -12 -23 -12 -8 0 10 8 15 17 13 20 -3 3 4 13 15 23 21 19 27 45 11 45 -27 0 -64 -24 -105 -66 -25 -27 -49 -45 -52 -41 -4 4 -2 7 4 7 7 0 12 5 12 11 0 5 -6 7 -12 3 -8 -4 -10 -3 -5 2 5 5 12 9 15 10 4 0 27 19 51 42 55 52 101 62 116 24z m1075 13 c0 -5 -29 -41 -65 -78 -36 -38 -65 -72 -65 -76 0 -26 35 -17 75 20 14 13 25 15 35 9 8 -5 10 -10 4 -10 -5 0 -21 -10 -33 -22 -22 -20 -82 -30 -96 -16 -12 12 17 58 67 106 l53 52 -37 0 c-46 0 -50 17 -5 22 51 6 67 4 67 -7z m326 3 c4 -6 3 -9 -2 -6 -5 4 -9 -62 -9 -155 1 -167 -8 -231 -33 -257 -10 -9 -41 -15 -91 -17 -41 -1 -81 -5 -88 -7 -7 -3 -15 -1 -18 5 -4 5 -12 6 -18 3 -7 -4 -9 -4 -5 0 4 5 45 9 91 11 145 5 142 -2 147 338 2 90 9 114 26 85z m-2768 -9 c28 -1 52 -4 52 -8 0 -3 -38 -6 -85 -5 l-86 1 54 -53 c78 -76 89 -144 18 -114 -33 13 -51 28 -96 80 l-30 35 35 -30 c19 -16 37 -33 40 -36 13 -14 56 -39 67 -39 37 0 -9 71 -83 129 -38 30 -26 54 23 46 21 -3 62 -6 91 -6z m542 1 c0 -5 -5 -10 -11 -10 -5 0 -7 5 -4 10 3 6 8 10 11 10 2 0 4 -4 4 -10z m85 -27 c0 -37 -10 -44 -18 -13 -3 11 0 20 5 20 7 0 7 5 -1 13 -8 10 -7 14 2 14 8 0 12 -13 12 -34z m1215 11 c0 -14 -4 -23 -9 -20 -5 3 -7 15 -4 26 7 28 13 25 13 -6z m490 14 c0 -5 -24 -8 -52 -7 -35 1 -45 3 -30 7 31 9 82 9 82 0z m-2240 -6 c0 -5 -7 -9 -15 -9 -8 0 -15 4 -15 9 0 4 7 8 15 8 8 0 15 -4 15 -8z m1528 -23 c-1 -17 -4 -25 -8 -18 -7 10 -2 49 5 49 2 0 3 -14 3 -31z m560 24 c-10 -2 -28 -2 -40 0 -13 2 -5 4 17 4 22 1 32 -1 23 -4z m-14531 -35 c-3 -8 -6 -5 -6 6 -1 11 2 17 5 13 3 -3 4 -12 1 -19z m991 -18 c-1 -17 -3 -28 -5 -26 -8 8 -9 65 -2 60 4 -2 7 -18 7 -34z m10911 -68 c-4 -17 -3 -34 1 -37 9 -5 2 -43 -9 -49 -5 -4 -6 182 0 194 6 15 13 -80 8 -108z m989 84 c-1 -14 -5 -23 -9 -20 -7 4 0 44 7 44 2 0 3 -11 2 -24z m157 14 c3 -5 1 -10 -4 -10 -6 0 -11 5 -11 10 0 6 2 10 4 10 3 0 8 -4 11 -10z m-4558 -22 c2 -17 0 -19 -7 -8 -5 8 -6 18 -4 22 8 12 10 10 11 -14z m4558 -140 c0 -139 0 -142 27 -180 20 -27 36 -38 56 -39 15 -1 34 -2 44 -3 9 -1 20 -5 24 -9 11 -11 -76 -6 -103 6 -11 5 -30 28 -41 51 -18 35 -21 61 -21 179 -1 75 3 137 7 137 4 0 8 -64 7 -142z m1147 102 c2 -23 -1 -39 -6 -37 -11 4 -15 77 -5 77 4 0 9 -18 11 -40z m-1216 -95 c0 -64 -3 -112 -8 -107 -4 4 -9 51 -9 103 -1 115 -1 119 9 119 4 0 7 -52 8 -115z m994 15 c0 -55 -3 -100 -7 -100 -5 0 -8 45 -8 100 0 55 3 100 8 100 4 0 7 -45 7 -100z m67 94 c-3 -3 -12 -4 -19 -1 -8 3 -5 6 6 6 11 1 17 -2 13 -5z m-1147 -19 c0 -8 -2 -15 -4 -15 -2 0 -6 7 -10 15 -3 8 -1 15 4 15 6 0 10 -7 10 -15z m-12893 -27 c-3 -7 -5 -2 -5 12 0 14 2 19 5 13 2 -7 2 -19 0 -25z m14037 0 c-1 -18 -3 -77 -4 -132 -3 -101 -24 -186 -43 -167 -6 6 -2 20 10 38 17 24 19 44 18 141 0 72 3 112 10 112 6 0 7 3 0 8 -15 11 -17 32 -2 32 9 0 13 -11 11 -32z m-13047 2 c-1 -21 -10 -18 -13 5 -1 8 2 15 6 15 5 0 8 -9 7 -20z m7501 -36 c0 -31 -1 -54 -4 -51 -7 7 -8 107 -1 107 2 0 4 -25 5 -56z m5093 -15 c-32 -32 -67 -59 -76 -59 -9 0 -29 10 -42 23 -72 64 -95 87 -86 87 5 0 31 -20 57 -45 56 -51 73 -55 106 -20 12 13 26 23 29 20 4 -2 17 12 30 31 13 18 27 31 32 28 5 -3 -18 -32 -50 -65z m-13584 9 c-3 -8 -6 -5 -6 6 -1 11 2 17 5 13 3 -3 4 -12 1 -19z m12891 -92 c-1 -112 -1 -114 -34 -159 -42 -58 -67 -74 -124 -82 -53 -8 -239 -13 -257 -7 -36 11 -2 17 95 15 112 -2 226 13 216 29 -3 4 -2 7 3 6 4 -2 19 5 33 15 13 9 21 17 16 17 -5 0 -2 8 8 19 19 21 27 72 29 184 1 42 4 77 8 77 4 0 7 -51 7 -114z m1308 46 c4 -168 20 -203 93 -205 22 -1 41 -5 41 -10 0 -4 5 -5 11 -1 17 10 61 11 82 1 10 -4 17 -4 17 2 0 6 7 8 15 5 26 -10 105 -9 105 1 0 7 3 6 8 0 8 -11 67 -13 78 -3 7 8 34 -1 34 -11 0 -9 -343 -7 -357 2 -7 5 -13 4 -13 -1 0 -6 -15 -7 -37 -2 -45 10 -88 56 -89 97 -1 15 -2 57 -4 93 -3 83 -2 100 8 100 4 0 8 -30 8 -68z m-13206 32 c0 -8 -4 -14 -8 -14 -4 0 -8 9 -8 19 0 11 4 17 8 15 4 -3 8 -12 8 -20z m10840 6 c0 -5 -5 -10 -11 -10 -5 0 -7 5 -4 10 3 6 8 10 11 10 2 0 4 -4 4 -10z m-3 -39 c0 -11 -5 -18 -9 -15 -4 3 -5 11 -1 19 7 21 12 19 10 -4z m-10840 -6 c0 -8 -4 -12 -9 -9 -5 3 -6 10 -3 15 9 13 12 11 12 -6z m-990 -27 c-3 -7 -5 -2 -5 12 0 14 2 19 5 13 2 -7 2 -19 0 -25z m8493 -4 c0 -14 -4 -23 -9 -20 -5 3 -7 15 -4 26 7 28 13 25 13 -6z m3414 -40 c2 -27 7 -57 11 -66 4 -10 3 -18 -3 -18 -12 0 -22 48 -22 103 0 55 10 41 14 -19z m-11907 4 c-3 -8 -6 -5 -6 6 -1 11 2 17 5 13 3 -3 4 -12 1 -19z m11859 -120 c10 -10 14 -18 10 -18 -4 0 -1 -7 8 -15 8 -8 19 -15 24 -15 6 0 12 -4 14 -10 2 -5 24 -10 50 -11 31 -2 45 -6 41 -13 -4 -6 1 -5 10 3 14 11 17 11 17 0 0 -9 3 -10 8 -4 4 6 25 9 47 8 121 -7 201 -12 208 -12 4 -1 7 -5 7 -9 0 -10 -143 -8 -159 2 -6 4 -11 2 -11 -4 0 -6 -10 -8 -22 -6 -13 3 -56 7 -97 10 -135 11 -184 56 -191 177 -3 59 2 56 11 -5 5 -32 16 -67 25 -78z m2108 87 c-14 -77 -49 -107 -128 -112 -113 -8 -186 -8 -186 -1 0 4 21 7 48 6 67 -2 170 10 192 22 18 10 57 57 59 73 1 4 1 16 1 28 0 11 4 18 9 14 5 -3 8 -16 5 -30z m-5474 -16 c0 -10 -3 -19 -7 -19 -5 0 -8 11 -8 24 0 13 3 22 8 19 4 -2 7 -13 7 -24z m-8493 -31 c-3 -7 -5 -2 -5 12 0 14 2 19 5 13 2 -7 2 -19 0 -25z m993 12 c0 -5 -2 -10 -4 -10 -3 0 -8 5 -11 10 -3 6 -1 10 4 10 6 0 11 -4 11 -10z m12045 -89 c20 -17 47 -31 60 -31 14 0 25 -3 25 -8 0 -4 24 -8 53 -8 143 -3 167 -5 167 -13 0 -17 -231 1 -277 21 -52 24 -103 93 -87 119 5 9 10 4 16 -18 4 -17 24 -45 43 -62z m-4553 47 c-8 -8 -9 -4 -5 13 4 13 8 18 11 10 2 -7 -1 -18 -6 -23z m3448 4 c0 -12 49 -34 60 -27 5 3 11 1 15 -5 11 -17 -28 -11 -62 10 -34 20 -41 30 -23 30 6 0 10 -4 10 -8z m-11933 -44 c-3 -8 -6 -5 -6 6 -1 11 2 17 5 13 3 -3 4 -12 1 -19z m8489 -15 c-11 -11 -17 4 -9 23 7 18 8 18 11 1 2 -10 1 -21 -2 -24z m3644 16 c0 -8 -96 -7 -105 2 -3 3 11 6 31 7 20 1 39 4 41 6 7 7 33 -5 33 -15z m121 6 c19 1 41 5 47 9 7 4 12 2 12 -6 0 -10 -23 -14 -85 -15 -54 -1 -85 2 -85 9 0 5 6 8 13 5 8 -3 20 -1 28 3 7 5 18 6 24 2 5 -4 26 -7 46 -7z m1019 -4 c0 -4 -14 -5 -31 -3 -19 3 -26 7 -19 12 14 8 50 2 50 -9z m41 1 c-7 -2 -18 1 -23 6 -8 8 -4 9 13 5 13 -4 18 -8 10 -11z m1476 8 c24 4 46 3 49 -2 3 -4 -3 -8 -13 -9 -87 -4 -133 -3 -133 2 0 13 13 17 32 10 12 -4 40 -4 65 -1z m-13799 -38 c2 -15 0 -23 -4 -19 -5 4 -9 19 -10 33 -1 32 9 21 14 -14z m11462 30 c0 -4 -25 -8 -55 -7 -30 0 -55 3 -55 8 0 4 25 7 55 7 30 0 55 -4 55 -8z m80 -2 c0 -4 -16 -6 -35 -6 -19 1 -35 4 -35 7 0 4 16 7 35 6 19 -1 35 -4 35 -7z m865 1 c-8 -8 -65 -6 -65 2 0 4 16 7 35 5 19 -1 32 -4 30 -7z m120 1 c-7 -8 -95 -5 -103 2 -3 4 19 6 51 5 31 -1 55 -5 52 -7z m58 1 c-7 -2 -21 -2 -30 0 -10 3 -4 5 12 5 17 0 24 -2 18 -5z m67 0 c0 -5 -11 -8 -25 -8 -14 0 -25 3 -25 8 0 4 11 7 25 7 14 0 25 -3 25 -7z m-6135 -13 c3 -5 1 -10 -4 -10 -6 0 -11 5 -11 10 0 6 2 10 4 10 3 0 8 -4 11 -10z m6475 4 c0 -9 -53 -54 -65 -55 -5 0 -19 -2 -30 -5 -30 -6 -198 -11 -212 -6 -32 11 4 17 101 17 58 0 106 3 106 8 0 4 3 6 8 5 14 -4 72 21 72 31 0 6 5 11 10 11 6 0 10 -3 10 -6z m-5493 -59 c0 -19 -3 -32 -7 -30 -7 4 -4 65 3 65 2 0 4 -16 4 -35z m-8490 3 c-3 -8 -6 -5 -6 6 -1 11 2 17 5 13 3 -3 4 -12 1 -19z m12430 -1 c6 -4 14 -1 16 5 4 8 6 7 6 -4 1 -11 -6 -16 -19 -15 -11 1 -20 4 -20 8 0 9 -20 6 -37 -4 -7 -5 -13 -4 -13 2 0 7 -8 7 -25 1 -19 -7 -25 -6 -25 3 0 14 96 17 117 4z m1178 -7 c-25 -9 -48 -6 -52 6 -2 6 13 8 34 6 30 -4 34 -6 18 -12z m41 -7 c-10 -10 -19 5 -10 18 6 11 8 11 12 0 2 -7 1 -15 -2 -18z m-12658 -19 c0 -19 -3 -33 -6 -29 -9 8 -9 65 -1 65 4 0 7 -16 7 -36z m12548 29 c-8 -8 -186 -9 -186 -1 0 5 43 8 96 7 52 -1 93 -3 90 -6z m-13539 -35 c-3 -8 -6 -5 -6 6 -1 11 2 17 5 13 3 -3 4 -12 1 -19z m8490 -30 c2 -17 0 -19 -7 -8 -5 8 -6 18 -4 22 8 12 10 10 11 -14z m-8490 -30 c-3 -8 -6 -5 -6 6 -1 11 2 17 5 13 3 -3 4 -12 1 -19z m991 -14 c0 -19 -3 -33 -6 -29 -9 8 -9 65 -1 65 4 0 7 -16 7 -36z m7502 1 c0 -8 -4 -15 -10 -15 -5 0 -7 7 -4 15 4 8 8 15 10 15 2 0 4 -7 4 -15z m-8493 -47 c-3 -8 -6 -5 -6 6 -1 11 2 17 5 13 3 -3 4 -12 1 -19z m8493 7 c0 -8 -4 -15 -10 -15 -5 0 -7 7 -4 15 4 8 8 15 10 15 2 0 4 -7 4 -15z m-7500 -30 c0 -14 -4 -25 -8 -25 -4 0 -8 11 -8 25 0 14 4 25 8 25 4 0 8 -11 8 -25z m-993 -17 c-3 -8 -6 -5 -6 6 -1 11 2 17 5 13 3 -3 4 -12 1 -19z m8493 7 c0 -8 -4 -15 -10 -15 -5 0 -7 7 -4 15 4 8 8 15 10 15 2 0 4 -7 4 -15z m-3 -40 c0 -8 -4 -12 -9 -9 -5 3 -6 10 -3 15 9 13 12 11 12 -6z m-7499 -29 c-1 -14 -5 -23 -9 -20 -4 2 -6 12 -4 22 5 23 4 22 10 22 3 0 4 -11 3 -24z m-991 -8 c-3 -8 -6 -5 -6 6 -1 11 2 17 5 13 3 -3 4 -12 1 -19z m8491 -43 c-3 -3 -9 2 -12 12 -6 14 -5 15 5 6 7 -7 10 -15 7 -18z m-7498 5 c0 -5 -2 -10 -4 -10 -3 0 -8 5 -11 10 -3 6 -1 10 4 10 6 0 11 -4 11 -10z m-993 -47 c-3 -10 -5 -4 -5 12 0 17 2 24 5 18 2 -7 2 -21 0 -30z m990 7 c-1 -21 -10 -18 -13 5 -1 8 2 15 6 15 5 0 8 -9 7 -20z m7501 -34 c-1 -19 -5 -33 -8 -31 -3 2 -5 16 -4 32 3 34 3 33 9 33 3 0 5 -15 3 -34z m-7498 -6 c0 -5 -2 -10 -4 -10 -3 0 -8 5 -11 10 -3 6 -1 10 4 10 6 0 11 -4 11 -10z m-3 -40 c-1 -21 -10 -18 -13 5 -1 8 2 15 6 15 5 0 8 -9 7 -20z m-990 -47 c-3 -10 -5 -4 -5 12 0 17 2 24 5 18 2 -7 2 -21 0 -30z m993 7 c0 -5 -2 -10 -4 -10 -3 0 -8 5 -11 10 -3 6 -1 10 4 10 6 0 11 -4 11 -10z m7500 0 c0 -5 -2 -10 -4 -10 -3 0 -8 5 -11 10 -3 6 -1 10 4 10 6 0 11 -4 11 -10z m-7503 -39 c0 -11 -5 -18 -9 -15 -4 3 -5 11 -1 19 7 21 12 19 10 -4z m7503 -16 c0 -8 -4 -15 -10 -15 -5 0 -7 7 -4 15 4 8 8 15 10 15 2 0 4 -7 4 -15z m-7502 -51 c0 -19 -3 -33 -6 -29 -9 8 -9 65 -1 65 4 0 7 -16 7 -36z m7499 -79 c0 -58 -3 -105 -7 -105 -3 0 -4 39 -3 88 1 48 2 95 3 105 0 9 2 17 4 17 3 0 4 -47 3 -105z m-8490 13 c-3 -8 -6 -5 -6 6 -1 11 2 17 5 13 3 -3 4 -12 1 -19z m991 -13 c0 -19 -3 -35 -6 -35 -4 0 -7 16 -7 35 0 19 3 35 7 35 3 0 6 -16 6 -35z m10927 -35 c-3 -5 -12 -10 -18 -10 -7 0 -6 4 3 10 19 12 23 12 15 0z m2831 -2 c4 -6 3 -9 -2 -6 -15 9 -54 -10 -54 -27 0 -8 -4 -15 -10 -15 -25 0 5 45 35 53 11 2 21 5 22 6 1 0 5 -4 9 -11z m39 -6 c-3 -3 -11 0 -18 7 -9 10 -8 11 6 5 10 -3 15 -9 12 -12z m465 8 c0 -5 -5 -10 -11 -10 -5 0 -7 5 -4 10 3 6 8 10 11 10 2 0 4 -4 4 -10z m-2760 -55 c0 -11 -14 7 -31 40 -7 13 -3 12 10 -5 11 -14 21 -29 21 -35z m2788 24 c-3 -8 -7 -3 -11 10 -4 17 -3 21 5 13 5 -5 8 -16 6 -23z m-14286 -142 c2 -75 -1 -126 -6 -124 -8 3 -13 244 -6 267 6 19 10 -33 12 -143z m10868 139 c0 -2 -8 -10 -17 -17 -16 -13 -17 -12 -4 4 13 16 21 21 21 13z m2827 -47 c2 -16 -1 -19 -9 -11 -5 5 -7 15 -4 21 10 15 12 14 13 -10z m-2853 -21 c-3 -4 -11 -8 -17 -7 -9 0 -9 2 0 5 7 3 9 13 6 22 -4 14 -3 14 5 2 6 -8 8 -18 6 -22z m-3344 7 c0 -8 -4 -15 -10 -15 -5 0 -7 7 -4 15 4 8 8 15 10 15 2 0 4 -7 4 -15z m4023 -35 c9 -11 13 -20 7 -20 -5 0 -14 9 -20 20 -6 11 -9 20 -8 20 2 0 11 -9 21 -20z m2174 -10 c0 -16 -3 -30 -7 -30 -6 0 -7 21 -1 53 3 18 8 4 8 -23z m-2867 6 c0 -8 -4 -17 -8 -20 -4 -2 -8 4 -8 15 0 10 4 19 8 19 4 0 8 -6 8 -14z m-3330 -43 c0 -21 -3 -24 -9 -14 -5 8 -7 20 -4 28 8 21 13 15 13 -14z m6787 -35 c-2 -13 -4 -3 -4 22 0 25 2 35 4 23 2 -13 2 -33 0 -45z m-3487 -4 c-11 -25 -20 -52 -20 -59 0 -7 -7 -15 -15 -18 -11 -5 -8 8 10 48 13 30 22 55 19 55 -3 0 -2 5 1 10 3 6 10 10 15 10 5 0 0 -21 -10 -46z m-11793 -16 c-3 -8 -6 -5 -6 6 -1 11 2 17 5 13 3 -3 4 -12 1 -19z m8493 2 c0 -11 -4 -20 -8 -20 -4 0 -8 9 -8 20 0 11 4 20 8 20 4 0 8 -9 8 -20z m6194 5 c3 -8 1 -15 -4 -15 -6 0 -10 7 -10 15 0 8 2 15 4 15 2 0 6 -7 10 -15z m-2123 -42 c13 -16 12 -17 -3 -4 -10 7 -18 15 -18 17 0 8 8 3 21 -13z m2122 -8 c-7 -21 -12 -19 -10 4 0 11 5 18 9 15 4 -3 5 -11 1 -19z m597 5 c0 -11 -2 -20 -4 -20 -2 0 -6 9 -9 20 -3 11 -1 20 4 20 5 0 9 -9 9 -20z m-6792 -21 c-1 -17 -4 -25 -8 -18 -7 10 -2 49 5 49 2 0 3 -14 3 -31z m-8497 -22 c-10 -9 -11 -8 -5 6 3 10 9 15 12 12 3 -3 0 -11 -7 -18z m14691 -30 c1 -20 0 -39 -3 -42 -3 -3 -7 16 -8 42 -2 54 7 55 11 0z m-13688 18 c-4 -8 -9 -15 -13 -15 -4 0 -8 7 -8 15 0 8 6 15 13 15 8 0 11 -6 8 -15z m10745 -29 c-7 -20 -16 -36 -21 -36 -4 0 -5 6 -3 13 19 55 26 69 31 64 3 -3 0 -22 -7 -41z m3538 -28 c-2 -13 -4 -3 -4 22 0 25 2 35 4 23 2 -13 2 -33 0 -45z m-6787 37 c0 -8 -2 -15 -4 -15 -2 0 -6 7 -10 15 -3 8 -1 15 4 15 6 0 10 -7 10 -15z m-7490 -9 c0 -11 -19 -15 -25 -6 -3 5 1 10 9 10 9 0 16 -2 16 -4z m11608 -31 c-3 -3 -9 2 -12 12 -6 14 -5 15 5 6 7 -7 10 -15 7 -18z m-12611 -17 c-3 -7 -5 -2 -5 12 0 14 2 19 5 13 2 -7 2 -19 0 -25z m8490 -5 c1 -32 0 -34 -6 -13 -7 21 -4 50 3 50 2 0 3 -17 3 -37z m-7442 6 c2 -3 -8 -5 -25 -5 -16 0 -27 3 -25 6 5 8 42 6 50 -1z m58 -6 c-7 -2 -21 -2 -30 0 -10 3 -4 5 12 5 17 0 24 -2 18 -5z m44 1 c-3 -3 -12 -4 -19 -1 -8 3 -5 6 6 6 11 1 17 -2 13 -5z m127 -2 c2 -4 -11 -6 -30 -4 -19 2 -34 6 -34 8 0 8 59 4 64 -4z m43 2 c-3 -3 -12 -4 -19 -1 -8 3 -5 6 6 6 11 1 17 -2 13 -5z m43 2 c0 -2 -7 -6 -15 -10 -8 -3 -15 -1 -15 4 0 6 7 10 15 10 8 0 15 -2 15 -4z m30 -6 c0 -5 -4 -10 -10 -10 -5 0 -10 5 -10 10 0 6 5 10 10 10 6 0 10 -4 10 -10z m60 -1 c0 -4 -10 -6 -21 -4 -32 6 -34 13 -4 13 14 0 25 -4 25 -9z m60 1 c0 -5 -2 -10 -4 -10 -3 0 -8 5 -11 10 -3 6 -1 10 4 10 6 0 11 -4 11 -10z m140 0 c0 -6 -106 -2 -125 5 -5 2 20 3 58 3 37 -1 67 -4 67 -8z m80 0 c0 -4 -7 -7 -15 -6 -23 3 -26 12 -5 13 11 1 20 -2 20 -7z m64 -2 c-2 -4 -14 -5 -26 -3 -32 7 -32 13 1 11 16 0 27 -4 25 -8z m46 8 c0 -2 -7 -7 -16 -10 -8 -3 -12 -2 -9 4 6 10 25 14 25 6z m74 -5 c3 -4 -4 -7 -14 -6 -27 2 -33 10 -10 12 11 1 22 -2 24 -6z m56 5 c0 -3 -4 -8 -10 -11 -5 -3 -10 -1 -10 4 0 6 5 11 10 11 6 0 10 -2 10 -4z m95 -6 c3 -6 -1 -7 -9 -4 -18 7 -21 14 -7 14 6 0 13 -4 16 -10z m45 0 c8 -5 11 -10 5 -10 -5 0 -17 5 -25 10 -8 5 -10 10 -5 10 6 0 17 -5 25 -10z m85 -8 c-3 -3 -11 0 -18 7 -9 10 -8 11 6 5 10 -3 15 -9 12 -12z m80 0 c-3 -3 -11 0 -18 7 -9 10 -8 11 6 5 10 -3 15 -9 12 -12z m55 14 c0 -3 -4 -8 -10 -11 -5 -3 -10 -1 -10 4 0 6 5 11 10 11 6 0 10 -2 10 -4z m504 -4 c2 -4 -4 -8 -14 -8 -10 0 -16 4 -14 8 3 4 9 8 14 8 5 0 11 -4 14 -8z m111 -10 c-3 -3 -11 0 -18 7 -9 10 -8 11 6 5 10 -3 15 -9 12 -12z m63 3 c3 -3 -4 -4 -16 -2 -12 2 -24 6 -28 10 -4 3 4 4 16 2 12 -2 25 -7 28 -10z m158 2 c3 -3 -6 -4 -20 -3 -15 2 -29 6 -32 9 -4 3 6 5 20 3 14 -1 29 -5 32 -9z m50 1 c-10 -6 -22 -6 -26 -2 -5 5 3 10 18 11 22 1 24 0 8 -9z m74 8 c0 -3 -4 -8 -10 -11 -5 -3 -10 -1 -10 4 0 6 5 11 10 11 6 0 10 -2 10 -4z m394 -7 c3 -3 -82 -5 -189 -5 -106 0 -192 3 -190 6 4 6 372 6 379 -1z m60 3 c2 -4 -7 -8 -22 -9 -24 -2 -24 -1 -7 7 11 5 21 9 22 9 1 1 4 -3 7 -7z m82 -5 c3 -3 -11 -4 -30 -4 -19 1 -33 4 -31 8 5 7 54 4 61 -4z m60 1 c4 -6 3 -8 -4 -4 -6 3 -13 2 -17 -4 -4 -6 -11 -7 -18 -3 -9 6 -3 10 30 22 1 1 5 -4 9 -11z m99 3 c-3 -2 -16 -6 -28 -8 -15 -2 -18 0 -9 5 14 9 45 12 37 3z m-1228 -7 c-3 -3 -12 -4 -19 -1 -8 3 -5 6 6 6 11 1 17 -2 13 -5z m150 0 c-3 -3 -12 -4 -19 -1 -8 3 -5 6 6 6 11 1 17 -2 13 -5z m1120 0 c-3 -3 -12 -4 -19 -1 -8 3 -5 6 6 6 11 1 17 -2 13 -5z m53 1 c0 -7 -30 -13 -34 -7 -3 4 4 9 15 9 10 1 19 0 19 -2z m67 -1 c-3 -3 -12 -4 -19 -1 -8 3 -5 6 6 6 11 1 17 -2 13 -5z m145 -17 c6 -11 5 -17 -2 -17 -5 0 -10 7 -10 16 0 8 -4 13 -9 9 -5 -3 -12 -1 -15 4 -4 5 1 8 10 7 9 -1 20 -10 26 -19z m8328 13 c0 -5 -2 -10 -4 -10 -3 0 -8 5 -11 10 -3 6 -1 10 4 10 6 0 11 -4 11 -10z m-919 -36 c-5 -16 -10 -21 -10 -12 -1 18 10 51 15 45 2 -1 -1 -16 -5 -33z m3579 16 c0 -5 -5 -10 -11 -10 -5 0 -7 5 -4 10 3 6 8 10 11 10 2 0 4 -4 4 -10z m-2630 -43 c0 -5 -7 -2 -15 7 -8 8 -15 20 -15 27 0 14 29 -20 30 -34z m-12653 14 c0 -11 -5 -18 -9 -15 -4 3 -5 11 -1 19 7 21 12 19 10 -4z m8490 4 c0 -8 -4 -12 -9 -9 -5 3 -6 10 -3 15 9 13 12 11 12 -6z m-4193 -10 c3 -8 1 -15 -4 -15 -6 0 -10 7 -10 15 0 8 2 15 4 15 2 0 6 -7 10 -15z m10983 -37 c-3 -7 -5 -2 -5 12 0 14 2 19 5 13 2 -7 2 -19 0 -25z m-6790 0 c-3 -8 -6 -5 -6 6 -1 11 2 17 5 13 3 -3 4 -12 1 -19z m6198 4 c-3 -3 -11 0 -18 7 -9 10 -8 11 6 5 10 -3 15 -9 12 -12z m-10392 -29 c3 -18 2 -33 -2 -33 -4 0 -8 16 -9 36 -2 44 4 42 11 -3z m7373 -9 c-15 -27 -16 -27 -10 -4 4 14 7 31 7 38 0 8 4 9 10 3 5 -5 2 -20 -7 -37z m-11669 4 c-3 -8 -6 -5 -6 6 -1 11 2 17 5 13 3 -3 4 -12 1 -19z m8490 -3 c0 -8 -4 -12 -9 -9 -5 3 -6 10 -3 15 9 13 12 11 12 -6z m4180 3 c0 -7 4 -22 7 -33 5 -13 2 -11 -7 5 -9 14 -13 28 -11 32 7 11 11 10 11 -4z m2016 -23 c4 -8 3 -16 -1 -19 -4 -3 -9 4 -9 15 -2 23 3 25 10 4z m597 5 c0 -5 -5 -10 -11 -10 -5 0 -7 5 -4 10 3 6 8 10 11 10 2 0 4 -4 4 -10z m-6793 -25 c0 -8 -4 -12 -9 -9 -5 3 -6 10 -3 15 9 13 12 11 12 -6z m6790 -27 c-3 -7 -5 -2 -5 12 0 14 2 19 5 13 2 -7 2 -19 0 -25z m-2567 -47 c0 -30 -7 -25 -14 12 -2 14 -8 32 -11 39 -4 7 1 4 9 -6 9 -11 16 -31 16 -45z m1972 -13 c2 -27 0 -48 -4 -48 -5 0 -7 28 -7 63 1 67 6 60 11 -15z m-10395 40 c-3 -8 -6 -5 -6 6 -1 11 2 17 5 13 3 -3 4 -12 1 -19z m4203 -8 c0 -5 -4 -10 -10 -10 -5 0 -10 5 -10 10 0 6 5 10 10 10 6 0 10 -4 10 -10z m6790 0 c0 -5 -2 -10 -4 -10 -3 0 -8 5 -11 10 -3 6 -1 10 4 10 6 0 11 -4 11 -10z m-15283 -32 c-3 -8 -6 -5 -6 6 -1 11 2 17 5 13 3 -3 4 -12 1 -19z m8493 -4 c0 -8 -5 -12 -10 -9 -6 4 -8 11 -5 16 9 14 15 11 15 -7z m3130 -14 c0 -5 -2 -10 -4 -10 -3 0 -8 5 -11 10 -3 6 -1 10 4 10 6 0 11 -4 11 -10z m3657 -312 l-1 -313 -6 305 c-5 289 -4 320 5 320 2 0 3 -141 2 -312z m-10974 267 c-3 -9 -8 -14 -10 -11 -3 3 -2 9 2 15 9 16 15 13 8 -4z m4184 -14 c0 -11 -5 -18 -9 -15 -4 3 -5 11 -1 19 7 21 12 19 10 -4z m6190 -78 c-2 -21 -4 -6 -4 32 0 39 2 55 4 38 2 -18 2 -50 0 -70z m-1932 77 c3 -5 1 -10 -4 -10 -6 0 -11 5 -11 10 0 6 2 10 4 10 3 0 8 -4 11 -10z m-12748 -32 c-3 -8 -6 -5 -6 6 -1 11 2 17 5 13 3 -3 4 -12 1 -19z m11579 -13 c-6 -19 -14 -35 -18 -35 -11 0 -10 7 7 40 21 40 24 38 11 -5z m-7289 3 c-3 -8 -6 -5 -6 6 -1 11 2 17 5 13 3 -3 4 -12 1 -19z m8477 6 c5 -14 4 -15 -9 -4 -17 14 -19 20 -6 20 5 0 12 -7 15 -16z m-4277 -24 c1 -11 -2 -20 -7 -20 -6 0 -7 17 -1 38 3 8 7 -1 8 -18z m3718 -30 c3 -5 1 -10 -4 -10 -6 0 -11 5 -11 10 0 6 2 10 4 10 3 0 8 -4 11 -10z m-3718 -29 c0 -11 -5 -18 -9 -15 -4 3 -5 11 -1 19 7 21 12 19 10 -4z m4298 9 c3 -5 1 -10 -4 -10 -6 0 -11 5 -11 10 0 6 2 10 4 10 3 0 8 -4 11 -10z m1897 -82 c-4 -125 -9 -137 -10 -30 -1 56 1 102 6 102 4 0 6 -33 4 -72z m-1870 17 c2 -11 8 -23 13 -27 6 -5 5 -8 -3 -8 -12 0 -21 15 -26 42 -1 7 -5 20 -10 28 -8 13 -7 13 7 0 8 -8 17 -24 19 -35z m-12815 13 c-3 -8 -6 -5 -6 6 -1 11 2 17 5 13 3 -3 4 -12 1 -19z m12110 2 c-3 -21 -17 -40 -17 -22 0 13 11 42 16 42 2 0 3 -9 1 -20z m-3619 -35 c-3 -3 -9 2 -12 12 -6 14 -5 15 5 6 7 -7 10 -15 7 -18z m3027 -15 c-9 -16 -17 -30 -20 -30 -2 0 1 14 6 30 6 17 15 30 20 30 5 0 3 -13 -6 -30z m730 0 c3 -5 1 -10 -4 -10 -6 0 -11 5 -11 10 0 6 2 10 4 10 3 0 8 -4 11 -10z m-175 -47 c-11 -17 -11 -17 -6 0 3 10 6 24 7 30 0 9 2 9 5 0 3 -7 0 -20 -6 -30z m775 0 c4 -15 2 -23 -6 -23 -7 0 -10 3 -6 6 3 3 1 18 -4 33 -6 15 -6 22 -1 16 5 -5 13 -20 17 -32z m-12854 4 c-10 -9 -11 -8 -5 6 3 10 9 15 12 12 3 -3 0 -11 -7 -18z m12284 -40 c13 -57 15 -67 11 -67 -2 0 -13 27 -25 61 -14 42 -16 57 -7 50 8 -6 17 -26 21 -44z m-3788 28 c0 -8 -4 -12 -9 -9 -5 3 -6 10 -3 15 9 13 12 11 12 -6z m2998 -12 c-3 -16 -11 -32 -16 -37 -5 -6 -4 5 1 25 6 18 10 35 10 36 0 2 3 3 6 3 3 0 3 -12 -1 -27z m-7185 -3 c-6 -11 -12 -20 -14 -20 -2 0 -2 9 1 20 3 11 9 20 15 20 5 0 4 -9 -2 -20z m7770 -8 c0 -5 -3 -12 -7 -16 -5 -4 -8 -11 -9 -14 0 -4 -6 -20 -12 -35 -7 -16 -12 -34 -12 -40 0 -7 -10 -23 -21 -37 -16 -20 -18 -21 -10 -4 6 12 20 51 32 88 12 36 26 66 30 66 5 0 9 -4 9 -8z m-12073 -24 c-3 -8 -6 -5 -6 6 -1 11 2 17 5 13 3 -3 4 -12 1 -19z m12863 2 c6 -11 7 -20 2 -20 -6 0 -12 9 -15 20 -3 11 -3 20 -1 20 2 0 8 -9 14 -20z m-1427 -112 c-19 -51 -37 -101 -40 -110 -3 -10 -9 -18 -13 -18 -7 0 57 182 73 208 18 27 13 8 -20 -80z m1452 52 c3 -5 1 -10 -4 -10 -6 0 -11 5 -11 10 0 6 2 10 4 10 3 0 8 -4 11 -10z m-566 -52 c7 -24 17 -52 22 -63 22 -52 28 -75 19 -75 -6 0 -11 5 -11 10 -2 14 -5 23 -13 41 -15 33 -44 139 -37 135 4 -3 13 -24 20 -48z m-3831 7 c-3 -3 -9 2 -12 12 -6 14 -5 15 5 6 7 -7 10 -15 7 -18z m4412 0 c14 -19 14 -19 -2 -6 -10 7 -18 18 -18 24 0 6 1 8 3 6 1 -2 9 -13 17 -24z m1777 -102 c-2 -21 -4 -4 -4 37 0 41 2 58 4 38 2 -21 2 -55 0 -75z m-14680 82 c0 -8 -4 -12 -9 -9 -5 3 -6 10 -3 15 9 13 12 11 12 -6z m8493 -36 c0 -5 -4 -9 -8 -9 -5 0 -9 7 -9 15 0 8 4 12 9 9 4 -3 8 -9 8 -15z m-8493 -21 c-3 -7 -5 -2 -5 12 0 14 2 19 5 13 2 -7 2 -19 0 -25z m11991 -11 c-6 -20 -15 -37 -20 -37 -4 0 -1 16 7 36 8 20 15 39 15 42 0 3 2 3 5 1 2 -3 -1 -22 -7 -42z m939 1 c-3 -7 -5 -2 -5 12 0 14 2 19 5 13 2 -7 2 -19 0 -25z m-8632 3 c3 -5 2 -12 -3 -15 -5 -3 -9 1 -9 9 0 17 3 19 12 6z m4192 -20 c0 -11 -5 -18 -9 -15 -4 3 -5 11 -1 19 7 21 12 19 10 -4z m-8490 -13 c-3 -8 -6 -5 -6 6 -1 11 2 17 5 13 3 -3 4 -12 1 -19z m12953 -9 c0 -5 -4 -9 -8 -9 -5 0 -9 7 -9 15 0 8 4 12 9 9 4 -3 8 -9 8 -15z m-11142 -14 c-3 -3 -9 2 -12 12 -6 14 -5 15 5 6 7 -7 10 -15 7 -18z m840 0 c-3 -3 -9 2 -12 12 -6 14 -5 15 5 6 7 -7 10 -15 7 -18z m29 10 c0 -8 -4 -12 -9 -9 -5 3 -6 10 -3 15 9 13 12 11 12 -6z m123 11 c0 -2 -6 -9 -14 -15 -11 -9 -16 -9 -22 0 -4 7 -3 9 4 5 6 -3 13 -2 17 4 6 10 15 14 15 6z m103 -17 c-8 -8 -13 -7 -18 2 -5 8 -4 10 3 5 7 -4 12 -2 12 5 0 7 3 9 7 6 4 -4 2 -12 -4 -18z m137 17 c0 -2 -6 -9 -14 -15 -11 -9 -16 -9 -22 0 -4 7 -3 9 4 5 6 -3 13 -2 17 4 6 10 15 14 15 6z m53 -17 c-8 -8 -13 -7 -18 2 -5 8 -4 10 3 5 7 -4 12 -2 12 5 0 7 3 9 7 6 4 -4 2 -12 -4 -18z m107 17 c0 -2 -6 -9 -14 -15 -11 -9 -16 -9 -22 0 -4 7 -3 9 4 5 6 -3 13 -2 17 4 6 10 15 14 15 6z m80 -11 c0 -12 -19 -12 -23 0 -4 9 -1 12 9 8 7 -3 14 -7 14 -8z m80 11 c0 -2 -6 -9 -14 -15 -11 -9 -16 -9 -22 0 -4 7 -3 9 4 5 6 -3 13 -2 17 4 6 10 15 14 15 6z m53 -17 c-8 -8 -13 -7 -18 2 -5 8 -4 10 3 5 7 -4 12 -2 12 5 0 7 3 9 7 6 4 -4 2 -12 -4 -18z m107 17 c0 -2 -6 -9 -14 -15 -11 -9 -16 -9 -22 0 -4 7 -3 9 4 5 6 -3 13 -2 17 4 6 10 15 14 15 6z m110 -11 c0 -12 -19 -12 -23 0 -4 9 -1 12 9 8 7 -3 14 -7 14 -8z m150 0 c0 -12 -19 -12 -23 0 -4 9 -1 12 9 8 7 -3 14 -7 14 -8z m-2710 -1 c0 -8 -19 -13 -24 -6 -3 5 1 9 9 9 8 0 15 -2 15 -3z m390 0 c0 -8 -19 -13 -24 -6 -3 5 1 9 9 9 8 0 15 -2 15 -3z m560 0 c0 -8 -19 -13 -24 -6 -3 5 1 9 9 9 8 0 15 -2 15 -3z m40 0 c0 -8 -19 -13 -24 -6 -3 5 1 9 9 9 8 0 15 -2 15 -3z m55 -4 c3 -6 -1 -7 -9 -4 -18 7 -21 14 -7 14 6 0 13 -4 16 -10z m95 6 c0 -3 -4 -8 -10 -11 -5 -3 -10 -1 -10 4 0 6 5 11 10 11 6 0 10 -2 10 -4z m90 0 c0 -3 -4 -8 -10 -11 -5 -3 -10 -1 -10 4 0 6 5 11 10 11 6 0 10 -2 10 -4z m60 -2 c0 -8 -19 -13 -24 -6 -3 5 1 9 9 9 8 0 15 -2 15 -3z m74 -3 c-8 -8 -34 -10 -38 -2 -3 4 6 7 19 7 14 0 22 -2 19 -5z m50 0 c-9 -9 -34 -9 -34 -1 0 5 9 8 20 7 10 -1 17 -3 14 -6z m80 0 c-8 -8 -34 -10 -38 -2 -3 4 6 7 19 7 14 0 22 -2 19 -5z m186 5 c0 -3 -4 -8 -10 -11 -5 -3 -10 -1 -10 4 0 6 5 11 10 11 6 0 10 -2 10 -4z m120 -6 c0 -5 -2 -10 -4 -10 -3 0 -8 5 -11 10 -3 6 -1 10 4 10 6 0 11 -4 11 -10z m120 0 c0 -5 -2 -10 -4 -10 -3 0 -8 5 -11 10 -3 6 -1 10 4 10 6 0 11 -4 11 -10z m160 0 c0 -5 -2 -10 -4 -10 -3 0 -8 5 -11 10 -3 6 -1 10 4 10 6 0 11 -4 11 -10z m160 6 c0 -3 -4 -8 -10 -11 -5 -3 -10 -1 -10 4 0 6 5 11 10 11 6 0 10 -2 10 -4z m160 -6 c0 -5 -2 -10 -4 -10 -3 0 -8 5 -11 10 -3 6 -1 10 4 10 6 0 11 -4 11 -10z m80 2 c0 -5 -7 -9 -15 -9 -8 0 -12 4 -9 9 3 4 9 8 15 8 5 0 9 -4 9 -8z m40 2 c0 -8 -19 -13 -24 -6 -3 5 1 9 9 9 8 0 15 -2 15 -3z m90 -4 c0 -5 -2 -10 -4 -10 -3 0 -8 5 -11 10 -3 6 -1 10 4 10 6 0 11 -4 11 -10z m40 4 c0 -8 -19 -13 -24 -6 -3 5 1 9 9 9 8 0 15 -2 15 -3z m90 2 c0 -3 -4 -8 -10 -11 -5 -3 -10 -1 -10 4 0 6 5 11 10 11 6 0 10 -2 10 -4z m30 0 c0 -3 -4 -8 -10 -11 -5 -3 -10 -1 -10 4 0 6 5 11 10 11 6 0 10 -2 10 -4z m30 0 c0 -3 -4 -8 -10 -11 -5 -3 -10 -1 -10 4 0 6 5 11 10 11 6 0 10 -2 10 -4z m30 0 c0 -3 -4 -8 -10 -11 -5 -3 -10 -1 -10 4 0 6 5 11 10 11 6 0 10 -2 10 -4z m30 0 c0 -3 -4 -8 -10 -11 -5 -3 -10 -1 -10 4 0 6 5 11 10 11 6 0 10 -2 10 -4z m30 0 c0 -3 -4 -8 -10 -11 -5 -3 -10 -1 -10 4 0 6 5 11 10 11 6 0 10 -2 10 -4z m70 -5 c0 -5 -12 -7 -26 -5 -37 4 -39 11 -4 12 16 0 30 -3 30 -7z m40 -1 c0 -5 -7 -7 -15 -4 -8 4 -15 8 -15 10 0 2 7 4 15 4 8 0 15 -4 15 -10z m40 0 c0 -5 -7 -7 -15 -4 -8 4 -15 8 -15 10 0 2 7 4 15 4 8 0 15 -4 15 -10z m51 1 c-8 -5 -20 -7 -28 -4 -21 8 -15 13 15 13 20 0 23 -3 13 -9z m46 3 c-3 -3 -12 -4 -19 -1 -8 3 -5 6 6 6 11 1 17 -2 13 -5z m83 2 c0 -2 -16 -6 -35 -8 -19 -2 -35 0 -35 4 0 4 16 8 35 8 19 0 35 -2 35 -4z m4197 -21 c0 -8 -4 -12 -9 -9 -5 3 -6 10 -3 15 9 13 12 11 12 -6z m2893 -9 c0 -7 -8 -20 -17 -27 -15 -11 -16 -11 -6 0 6 7 9 20 6 27 -3 8 0 14 6 14 6 0 11 -6 11 -14z m3305 4 c-3 -5 -11 -10 -16 -10 -6 0 -7 5 -4 10 3 6 11 10 16 10 6 0 7 -4 4 -10z m-2296 -50 c7 -22 8 -31 1 -24 -6 6 -15 25 -20 44 -12 43 3 26 19 -20z m2891 30 c0 -11 -2 -20 -4 -20 -2 0 -6 9 -9 20 -3 11 -1 20 4 20 5 0 9 -9 9 -20z m-15283 -5 c0 -8 -4 -12 -9 -9 -5 3 -6 10 -3 15 9 13 12 11 12 -6z m11963 5 c0 -5 -5 -10 -11 -10 -5 0 -7 5 -4 10 3 6 8 10 11 10 2 0 4 -4 4 -10z m2720 -17 c5 -161 3 -433 -2 -433 -4 0 -9 99 -10 220 -2 121 0 220 5 220 4 0 7 -3 7 -7z m-6192 -28 c-3 -3 -9 2 -12 12 -6 14 -5 15 5 6 7 -7 10 -15 7 -18z m3462 11 c0 -8 -7 -16 -15 -20 -12 -4 -13 -2 -2 14 14 24 17 25 17 6z m-11953 -28 c-3 -7 -5 -2 -5 12 0 14 2 19 5 13 2 -7 2 -19 0 -25z m11359 16 c-3 -9 -6 -18 -6 -20 0 -2 -4 -4 -9 -4 -5 0 -7 9 -4 20 3 11 10 20 15 20 6 0 7 -7 4 -16z m1624 11 c0 -2 9 -27 20 -55 11 -27 16 -50 12 -50 -7 0 -34 61 -37 80 0 3 -4 11 -8 18 -5 7 -4 12 2 12 6 0 11 -2 11 -5z m2293 -46 c-6 -6 -7 3 -4 23 4 28 6 29 9 9 2 -13 0 -27 -5 -32z m-3351 -21 c-8 -8 -9 -4 -5 13 4 13 8 18 11 10 2 -7 -1 -18 -6 -23z m489 10 c11 -21 11 -22 -4 -9 -10 7 -17 17 -17 22 0 15 9 10 21 -13z m-3921 -8 c0 -5 -2 -10 -4 -10 -3 0 -8 5 -11 10 -3 6 -1 10 4 10 6 0 11 -4 11 -10z m6787 -32 c-3 -7 -5 -2 -5 12 0 14 2 19 5 13 2 -7 2 -19 0 -25z m-15280 0 c-3 -8 -6 -5 -6 6 -1 11 2 17 5 13 3 -3 4 -12 1 -19z m11325 0 c-7 -7 -12 -8 -12 -2 0 14 12 26 19 19 2 -3 -1 -11 -7 -17z m582 -15 c-4 -16 -10 -32 -15 -37 -5 -5 -4 6 1 25 6 18 10 35 10 36 0 2 2 3 5 3 3 0 2 -12 -1 -27z m524 2 c-3 -3 -9 2 -12 12 -6 14 -5 15 5 6 7 -7 10 -15 7 -18z m-3941 -27 c-3 -8 -6 -5 -6 6 -1 11 2 17 5 13 3 -3 4 -12 1 -19z m2809 -15 c-8 -15 -15 -25 -16 -21 0 12 23 58 27 54 3 -2 -2 -17 -11 -33z m3981 5 c-3 -7 -5 -2 -5 12 0 14 2 19 5 13 2 -7 2 -19 0 -25z m-2823 -31 c24 -58 28 -85 8 -47 -22 40 -36 80 -28 80 3 0 12 -15 20 -33z m-3967 1 c-3 -8 -6 -5 -6 6 -1 11 2 17 5 13 3 -3 4 -12 1 -19z m3397 -3 c-4 -8 -8 -15 -10 -15 -2 0 -4 7 -4 15 0 8 4 15 10 15 5 0 7 -7 4 -15z m-11887 -32 c-3 -10 -5 -4 -5 12 0 17 2 24 5 18 2 -7 2 -21 0 -30z m13071 -25 c11 -32 17 -58 13 -58 -7 0 -41 91 -41 111 0 19 6 9 28 -53z m-1785 32 c-3 -11 -9 -20 -13 -20 -5 0 -6 9 -3 20 3 11 9 20 13 20 5 0 6 -9 3 -20z m-2796 -12 c-3 -8 -6 -5 -6 6 -1 11 2 17 5 13 3 -3 4 -12 1 -19z m3378 -14 c-1 -14 -7 -30 -13 -36 -7 -7 -10 -5 -7 8 2 11 4 20 5 22 2 1 4 7 5 12 1 6 3 12 4 15 4 16 9 1 6 -21z m3412 1 c0 -8 -4 -12 -9 -9 -5 3 -6 10 -3 15 9 13 12 11 12 -6z m-6787 -26 c0 -11 -4 -18 -10 -14 -5 3 -7 12 -3 20 7 21 13 19 13 -6z m2780 11 c0 -5 -4 -10 -10 -10 -5 0 -10 5 -10 10 0 6 5 10 10 10 6 0 10 -4 10 -10z m4007 -32 c-3 -8 -6 -5 -6 6 -1 11 2 17 5 13 3 -3 4 -12 1 -19z m-4032 -28 c-19 -53 -34 -80 -35 -61 0 15 39 101 45 101 2 0 -2 -18 -10 -40z m1248 10 c3 -11 2 -20 -3 -20 -4 0 -10 11 -12 25 -6 29 7 25 15 -5z m-12496 -37 c-3 -10 -5 -4 -5 12 0 17 2 24 5 18 2 -7 2 -21 0 -30z m11836 22 c-3 -9 -8 -14 -10 -11 -3 3 -2 9 2 15 9 16 15 13 8 -4z m3440 -36 c-6 -6 -7 3 -4 23 4 28 6 29 9 9 2 -13 0 -27 -5 -32z m-2169 26 c3 -8 1 -15 -3 -15 -5 0 -11 7 -15 15 -3 8 -1 15 3 15 5 0 11 -7 15 -15z m-1274 -25 c0 -5 -4 -10 -10 -10 -5 0 -10 5 -10 10 0 6 5 10 10 10 6 0 10 -4 10 -10z m-24 -43 c-2 -13 -8 -32 -15 -43 -11 -17 -11 -17 -5 5 3 13 8 31 9 40 4 21 4 21 9 21 2 0 3 -10 2 -23z m-3319 -14 c1 -24 0 -25 -6 -8 -7 17 -6 35 2 35 2 0 3 -12 4 -27z m4105 -157 c9 -18 9 -19 -4 -6 -21 21 -58 118 -58 149 0 16 10 -3 26 -48 14 -41 30 -84 36 -95z m-12595 112 c-3 -7 -5 -2 -5 12 0 14 2 19 5 13 2 -7 2 -19 0 -25z m11182 -32 c-12 -31 -26 -56 -30 -56 -5 0 -5 8 -1 18 4 9 16 36 26 60 27 62 30 45 5 -22z m4098 37 c1 -24 0 -25 -6 -8 -7 17 -6 35 2 35 2 0 3 -12 4 -27z m-600 10 c-4 -3 -3 -11 2 -17 5 -6 5 -20 0 -31 -9 -18 -9 -18 -5 2 2 13 0 26 -5 29 -9 5 -3 24 8 24 4 0 3 -3 0 -7z m-6196 -26 c-10 -9 -11 -8 -5 6 3 10 9 15 12 12 3 -3 0 -11 -7 -18z m3295 -26 c-9 -16 -12 -32 -8 -36 4 -5 2 -5 -5 -1 -14 7 2 66 18 66 5 0 3 -13 -5 -29z m1385 2 c13 -34 22 -80 14 -72 -3 4 -7 15 -9 25 -3 11 -9 31 -15 47 -6 15 -8 27 -6 27 3 0 10 -12 16 -27z m-13164 -5 c-3 -8 -6 -5 -6 6 -1 11 2 17 5 13 3 -3 4 -12 1 -19z m8491 -23 c-1 -20 -4 -31 -8 -25 -7 11 -2 60 6 60 2 0 3 -16 2 -35z m6194 -41 c-6 -35 -12 -29 -10 11 1 20 4 31 8 25 4 -6 5 -22 2 -36z m-14685 -16 c-3 -7 -5 -2 -5 12 0 14 2 19 5 13 2 -7 2 -19 0 -25z m11763 24 c0 -5 -10 -20 -21 -33 -12 -13 -19 -17 -15 -9 3 8 9 23 12 33 6 17 24 24 24 9z m-3273 -102 c0 -50 -2 -88 -5 -85 -7 7 -8 175 -1 175 4 0 6 -41 6 -90z m2649 58 c-1 -7 -10 -26 -20 -43 -9 -16 -14 -21 -11 -10 4 11 8 25 9 30 2 12 16 35 21 35 2 0 2 -6 1 -12z m-11139 -20 c-3 -8 -6 -5 -6 6 -1 11 2 17 5 13 3 -3 4 -12 1 -19z m7508 13 c3 -5 2 -12 -3 -15 -5 -3 -9 1 -9 9 0 17 3 19 12 6z m7772 -33 c-3 -7 -5 -2 -5 12 0 14 2 19 5 13 2 -7 2 -19 0 -25z m-3554 -3 c-7 -21 -13 -19 -13 6 0 11 4 18 10 14 5 -3 7 -12 3 -20z m898 -23 c6 -20 16 -43 22 -49 5 -7 7 -13 4 -13 -3 0 1 -17 9 -37 9 -20 18 -44 20 -52 7 -29 59 -176 67 -188 5 -7 4 -13 -2 -13 -6 0 -17 21 -25 48 -23 69 -80 229 -105 290 -24 59 -25 66 -12 57 5 -3 15 -22 22 -43z m2062 12 c-4 -12 -8 -13 -14 -3 -9 15 -2 32 11 24 5 -3 6 -13 3 -21z m591 -20 c3 -8 2 -12 -4 -9 -6 3 -10 10 -10 16 0 14 7 11 14 -7z m-15277 -26 c-3 -7 -5 -2 -5 12 0 14 2 19 5 13 2 -7 2 -19 0 -25z m11708 15 c-5 -29 -24 -73 -30 -73 -6 0 -1 23 16 68 10 26 19 29 14 5z m-4200 -2 c3 -5 2 -12 -3 -15 -5 -3 -9 1 -9 9 0 17 3 19 12 6z m3595 -6 c0 -8 -4 -15 -10 -15 -5 0 -7 7 -4 15 4 8 8 15 10 15 2 0 4 -7 4 -15z m3584 -36 c-3 -5 -10 -7 -15 -3 -5 3 -7 10 -3 15 3 5 10 7 15 3 5 -3 7 -10 3 -15z m-3603 -12 c-10 -9 -11 -8 -5 6 3 10 9 15 12 12 3 -3 0 -11 -7 -18z m-11084 -29 c-3 -8 -6 -5 -6 6 -1 11 2 17 5 13 3 -3 4 -12 1 -19z m14689 -3 c1 -8 -2 -17 -7 -21 -5 -3 -8 6 -7 20 2 26 10 26 14 1z m-3606 5 c0 -5 -5 -10 -11 -10 -5 0 -7 5 -4 10 3 6 8 10 11 10 2 0 4 -4 4 -10z m-2592 -35 c-1 -14 -6 -25 -11 -25 -5 0 -6 7 -3 16 3 9 6 20 6 25 0 5 2 9 5 9 3 0 4 -11 3 -25z m-8491 -7 c-3 -8 -6 -5 -6 6 -1 11 2 17 5 13 3 -3 4 -12 1 -19z m11669 7 c-1 -8 -8 -21 -16 -28 -10 -10 -11 -9 -4 3 5 8 9 18 10 23 3 14 4 17 8 17 2 0 3 -7 2 -15z m1621 -25 c4 -30 -14 -15 -20 16 -3 18 -1 22 6 15 6 -6 12 -20 14 -31z m-2244 -28 c-9 -26 -22 -54 -30 -62 -14 -13 -14 -12 -4 8 7 12 9 22 6 22 -3 0 1 10 9 22 9 12 16 33 16 46 0 13 4 21 9 17 6 -3 3 -25 -6 -53z m3640 23 c-7 -21 -12 -19 -10 4 0 11 5 18 9 15 4 -3 5 -11 1 -19z m-14686 -17 c-3 -8 -6 -5 -6 6 -1 11 2 17 5 13 3 -3 4 -12 1 -19z m8490 -32 c0 -25 -4 -43 -7 -41 -3 2 -5 16 -4 32 1 15 3 34 3 41 1 6 3 12 5 12 3 0 4 -20 3 -44z m3154 15 c-6 -10 -7 -22 -3 -26 4 -5 2 -5 -5 -2 -13 8 -6 47 9 47 5 0 4 -8 -1 -19z m3036 -18 c1 -24 0 -25 -6 -8 -7 17 -6 35 2 35 2 0 3 -12 4 -27z m-14680 -5 c-3 -8 -6 -5 -6 6 -1 11 2 17 5 13 3 -3 4 -12 1 -19z m13313 -9 c0 -4 5 -20 12 -36 6 -15 12 -32 14 -38 14 -47 16 -59 8 -52 -5 5 -10 13 -10 18 -1 5 -3 12 -4 17 -2 4 -4 12 -5 17 -3 17 -24 69 -37 90 -10 18 -10 19 5 6 10 -7 17 -17 17 -22z m-13313 -46 c-3 -10 -5 -4 -5 12 0 17 2 24 5 18 2 -7 2 -21 0 -30z m14688 18 c3 -5 2 -12 -3 -15 -5 -3 -9 1 -9 9 0 17 3 19 12 6z m-7180 -10 c3 -5 2 -12 -3 -15 -5 -3 -9 1 -9 9 0 17 3 19 12 6z m983 -32 c-1 -17 -4 -25 -8 -18 -7 10 -2 49 5 49 2 0 3 -14 3 -31z m-8497 -22 c-10 -9 -11 -8 -5 6 3 10 9 15 12 12 3 -3 0 -11 -7 -18z m11619 13 c0 -5 -4 -10 -10 -10 -5 0 -10 5 -10 10 0 6 5 10 10 10 6 0 10 -4 10 -10z m3075 -20 c3 -5 1 -10 -4 -10 -6 0 -11 5 -11 10 0 6 2 10 4 10 3 0 8 -4 11 -10z m-3710 -45 c-8 -21 -18 -36 -20 -33 -3 3 2 22 10 43 9 20 18 35 21 32 3 -3 -2 -22 -11 -42z m-2485 15 c0 -11 -4 -20 -9 -20 -5 0 -7 9 -4 20 3 11 7 20 9 20 2 0 4 -9 4 -20z m3093 -10 c-8 -30 -21 -34 -15 -5 2 14 8 25 12 25 5 0 6 -9 3 -20z m3107 -20 c0 -5 -4 -10 -10 -10 -5 0 -10 5 -10 10 0 6 5 10 10 10 6 0 10 -4 10 -10z m-6202 -30 c0 -16 -3 -32 -6 -34 -6 -4 -7 16 -3 57 2 19 8 4 9 -23z m4284 -15 c3 -13 2 -22 -2 -20 -4 3 -10 16 -12 30 -3 13 -2 22 2 20 4 -3 10 -16 12 -30z m603 25 c-3 -5 -2 -10 2 -10 5 0 9 -10 10 -22 2 -22 1 -22 -12 2 -12 23 -12 40 1 40 3 0 2 -4 -1 -10z m-13378 -22 c-3 -8 -6 -5 -6 6 -1 11 2 17 5 13 3 -3 4 -12 1 -19z m10941 -33 c-6 -14 -13 -24 -14 -22 -6 6 9 47 17 47 5 0 3 -11 -3 -25z m3747 15 c3 -5 1 -10 -4 -10 -6 0 -11 5 -11 10 0 6 2 10 4 10 3 0 8 -4 11 -10z m-7180 -9 c3 -5 2 -12 -3 -15 -5 -3 -9 1 -9 9 0 17 3 19 12 6z m-6518 -16 c0 -8 -4 -12 -9 -9 -5 3 -6 10 -3 15 9 13 12 11 12 -6z m10563 1 c0 -2 -7 -9 -15 -16 -13 -11 -14 -10 -9 4 5 14 24 23 24 12z m-11553 -53 l1 -48 -7 40 c-6 35 -5 55 3 55 1 0 3 -21 3 -47z m13408 37 c3 -5 1 -10 -4 -10 -6 0 -11 5 -11 10 0 6 2 10 4 10 3 0 8 -4 11 -10z m1280 -9 c3 -5 2 -12 -3 -15 -5 -3 -9 1 -9 9 0 17 3 19 12 6z m-7182 -16 c4 -8 3 -16 -1 -19 -4 -3 -9 4 -9 15 -2 23 3 25 10 4z m984 0 c0 -8 -4 -12 -9 -9 -5 3 -6 10 -3 15 9 13 12 11 12 -6z m4313 -20 c0 -5 -5 -3 -10 5 -5 8 -10 20 -10 25 0 6 5 3 10 -5 5 -8 10 -19 10 -25z m633 -22 c9 -24 12 -43 7 -43 -6 0 -10 9 -10 19 0 11 -4 23 -10 26 -5 3 -10 16 -10 27 0 27 3 23 23 -29z m-2520 17 c-3 -11 -10 -23 -16 -27 -5 -3 -8 -2 -5 3 3 5 8 17 11 27 9 24 16 22 10 -3z m603 -17 c-8 -15 -15 -22 -16 -15 0 14 22 53 28 47 2 -2 -3 -16 -12 -32z m3169 18 c3 -5 2 -12 -3 -15 -5 -3 -9 1 -9 9 0 17 3 19 12 6z m-1877 -36 c-3 -3 -9 2 -12 12 -6 14 -5 15 5 6 7 -7 10 -15 7 -18z m-4318 -5 c0 -11 -4 -20 -8 -20 -4 0 -8 9 -8 20 0 11 4 20 8 20 4 0 8 -9 8 -20z m-985 -19 c3 -5 2 -12 -3 -15 -5 -3 -9 1 -9 9 0 17 3 19 12 6z m3992 -10 c0 -11 -5 -18 -9 -15 -4 3 -5 11 -1 19 7 21 12 19 10 -4z m-11497 -1 c0 -5 -5 -10 -11 -10 -5 0 -7 5 -4 10 3 6 8 10 11 10 2 0 4 -4 4 -10z m12828 -25 c-3 -30 -11 -23 -13 9 0 14 3 22 7 20 4 -3 7 -16 6 -29z m-4341 3 c-3 -8 -6 -5 -6 6 -1 11 2 17 5 13 3 -3 4 -12 1 -19z m-8490 -35 c-3 -10 -5 -4 -5 12 0 17 2 24 5 18 2 -7 2 -21 0 -30z m10855 -38 c-2 -14 -8 -25 -13 -25 -12 0 -11 27 1 35 6 4 7 11 4 17 -4 6 -2 8 3 5 6 -4 8 -18 5 -32z m-2365 10 c0 -8 -4 -12 -9 -9 -5 3 -6 10 -3 15 9 13 12 11 12 -6z m3063 -5 c0 -5 -7 -7 -15 -4 -8 4 -15 8 -15 10 0 2 7 4 15 4 8 0 15 -4 15 -10z m193 1 c5 -1 5 -6 1 -12 -3 -6 -9 -7 -13 -3 -9 13 -55 13 -63 0 -6 -8 -8 -8 -8 0 0 12 -44 13 -56 1 -9 -8 -26 2 -20 12 4 5 116 7 159 2z m57 -6 c0 -2 -9 -3 -19 -2 -11 0 -18 5 -15 9 4 6 34 0 34 -7z m25 6 c3 -5 1 -12 -5 -16 -5 -3 -10 1 -10 9 0 18 6 21 15 7z m65 5 c0 -3 -4 -8 -10 -11 -5 -3 -10 -1 -10 4 0 6 5 11 10 11 6 0 10 -2 10 -4z m45 -8 c5 4 5 1 1 -6 -6 -10 -11 -10 -22 -1 -8 6 -14 14 -14 16 0 3 6 0 13 -6 8 -6 18 -7 22 -3z m98 -3 c-3 -9 -8 -14 -10 -11 -3 3 -2 9 2 15 9 16 15 13 8 -4z m372 -3 c-3 -3 -11 0 -18 7 -9 10 -8 11 6 5 10 -3 15 -9 12 -12z m40 8 c3 -6 -1 -7 -9 -4 -18 7 -21 14 -7 14 6 0 13 -4 16 -10z m100 1 c-8 -7 -76 -8 -80 -1 -2 4 16 6 40 6 25 0 42 -2 40 -5z m45 1 c0 -5 -7 -9 -15 -9 -8 0 -12 4 -9 9 3 4 9 8 15 8 5 0 9 -4 9 -8z m60 -2 c0 -5 -2 -10 -4 -10 -3 0 -8 5 -11 10 -3 6 -1 10 4 10 6 0 11 -4 11 -10z m103 3 c-13 -2 -33 -2 -45 0 -13 2 -3 4 22 4 25 0 35 -2 23 -4z m-543 -13 c0 -5 -2 -10 -4 -10 -3 0 -8 5 -11 10 -3 6 -1 10 4 10 6 0 11 -4 11 -10z m2471 -17 c-12 -20 -14 -14 -5 12 4 9 9 14 11 11 3 -2 0 -13 -6 -23z m-14681 -3 c0 -5 -2 -10 -4 -10 -3 0 -8 5 -11 10 -3 6 -1 10 4 10 6 0 11 -4 11 -10z m8487 -22 c-3 -7 -5 -2 -5 12 0 14 2 19 5 13 2 -7 2 -19 0 -25z m-982 13 c3 -5 2 -12 -3 -15 -5 -3 -9 1 -9 9 0 17 3 19 12 6z m-7508 -73 c-2 -13 -4 -3 -4 22 0 25 2 35 4 23 2 -13 2 -33 0 -45z m13513 34 c0 -10 6 -24 13 -32 10 -12 9 -12 -4 -2 -19 14 -32 52 -18 52 5 0 9 -8 9 -18z m-2690 -7 c0 -8 -4 -15 -10 -15 -5 0 -7 7 -4 15 4 8 8 15 10 15 2 0 4 -7 4 -15z m-2333 -47 c-3 -8 -6 -5 -6 6 -1 11 2 17 5 13 3 -3 4 -12 1 -19z m6793 2 c0 -5 -5 -10 -11 -10 -5 0 -7 5 -4 10 3 6 8 10 11 10 2 0 4 -4 4 -10z m-15280 -20 c0 -5 -2 -10 -4 -10 -3 0 -8 5 -11 10 -3 6 -1 10 4 10 6 0 11 -4 11 -10z m10791 -17 c-13 -45 -73 -184 -77 -180 -4 4 59 178 72 198 10 17 13 9 5 -18z m3894 17 c3 -5 1 -10 -4 -10 -6 0 -11 5 -11 10 0 6 2 10 4 10 3 0 8 -4 11 -10z m-6198 -15 c0 -8 -4 -12 -9 -9 -5 3 -6 10 -3 15 9 13 12 11 12 -6z m5061 -10 c3 -11 0 -15 -7 -10 -6 3 -9 10 -6 15 3 4 0 11 -5 13 -6 3 -5 4 2 3 7 -1 15 -11 16 -21z m-13551 -57 c-2 -13 -4 -3 -4 22 0 25 2 35 4 23 2 -13 2 -33 0 -45z m8490 10 c-3 -7 -5 -2 -5 12 0 14 2 19 5 13 2 -7 2 -19 0 -25z m5083 -18 c6 -11 7 -20 2 -20 -6 0 -12 9 -15 20 -3 11 -3 20 -1 20 2 0 8 -9 14 -20z m1112 -26 c-6 -12 -9 -7 -9 16 0 23 3 28 9 16 5 -9 5 -23 0 -32z m-6195 -44 c0 -39 -2 -68 -5 -65 -3 3 -5 33 -4 67 1 69 0 68 6 68 2 0 3 -32 3 -70z m-8487 40 c0 -5 -2 -10 -4 -10 -3 0 -8 5 -11 10 -3 6 -1 10 4 10 6 0 11 -4 11 -10z m15273 -45 c-3 -9 -8 -14 -10 -11 -3 3 -2 9 2 15 9 16 15 13 8 -4z m-15276 -27 c-3 -7 -5 -2 -5 12 0 14 2 19 5 13 2 -7 2 -19 0 -25z m3 -33 c0 -8 -2 -15 -4 -15 -2 0 -6 7 -10 15 -3 8 -1 15 4 15 6 0 10 -7 10 -15z m10720 5 c0 -5 -2 -10 -4 -10 -3 0 -8 5 -11 10 -3 6 -1 10 4 10 6 0 11 -4 11 -10z m4560 0 c0 -5 -2 -10 -4 -10 -3 0 -8 5 -11 10 -3 6 -1 10 4 10 6 0 11 -4 11 -10z m-6790 -35 c0 -8 -2 -15 -4 -15 -2 0 -6 7 -10 15 -3 8 -1 15 4 15 6 0 10 -7 10 -15z m2190 -42 c-23 -41 -23 -38 0 20 8 21 16 34 18 28 2 -5 -6 -27 -18 -48z m2955 47 c3 -6 -1 -7 -9 -4 -18 7 -21 14 -7 14 6 0 13 -4 16 -10z m-13635 -15 c0 -8 -2 -15 -4 -15 -2 0 -6 7 -10 15 -3 8 -1 15 4 15 6 0 10 -7 10 -15z m13638 -30 c-3 -3 -9 2 -12 12 -6 14 -5 15 5 6 7 -7 10 -15 7 -18z m1047 15 c3 -5 1 -10 -4 -10 -6 0 -11 5 -11 10 0 6 2 10 4 10 3 0 8 -4 11 -10z m586 -23 c-10 -9 -11 -8 -5 6 3 10 9 15 12 12 3 -3 0 -11 -7 -18z m-15271 -2 c0 -8 -2 -15 -4 -15 -2 0 -6 7 -10 15 -3 8 -1 15 4 15 6 0 10 -7 10 -15z m0 -40 c0 -8 -2 -15 -4 -15 -2 0 -6 7 -10 15 -3 8 -1 15 4 15 6 0 10 -7 10 -15z m8490 -26 c0 -11 -4 -18 -10 -14 -5 3 -7 12 -3 20 7 21 13 19 13 -6z m6787 -6 c1 -22 -1 -24 -8 -10 -6 9 -7 22 -4 27 9 14 10 13 12 -17z m-3387 -4 c0 -6 -82 -9 -225 -8 -124 1 -223 4 -220 7 3 3 99 7 213 10 114 2 209 6 211 8 6 6 21 -6 21 -17z m50 11 c0 10 3 10 14 1 10 -8 16 -9 21 -1 3 6 11 8 16 5 21 -13 6 -21 -41 -22 -47 -2 -59 4 -43 20 3 4 12 2 20 -4 10 -9 13 -8 13 1z m416 -2 c3 -3 20 -2 39 2 19 4 36 6 38 4 2 -2 117 -5 255 -5 157 -1 252 -6 252 -12 0 -5 5 -5 13 2 10 8 14 7 14 -2 0 -8 -18 -11 -61 -10 -34 1 -249 3 -478 5 -230 2 -418 6 -418 11 0 4 63 6 140 5 77 -2 140 -1 140 2 0 7 59 5 66 -2z m-12356 -13 c0 -8 -2 -15 -4 -15 -2 0 -6 7 -10 15 -3 8 -1 15 4 15 6 0 10 -7 10 -15z m11425 -3 c-3 -3 -11 0 -18 7 -9 10 -8 11 6 5 10 -3 15 -9 12 -12z m-159 -36 c-15 -14 -26 -23 -26 -20 0 11 45 61 48 53 2 -4 -8 -19 -22 -33z m-3763 9 c-7 -21 -12 -19 -10 4 0 11 5 18 9 15 4 -3 5 -11 1 -19z m6185 -6 c-3 -8 -7 -3 -11 10 -4 17 -3 21 5 13 5 -5 8 -16 6 -23z m-13691 -26 c1 -36 1 -37 -6 -8 -6 26 -5 45 3 45 1 0 2 -17 3 -37z m8493 11 c0 -8 -5 -12 -10 -9 -6 4 -8 11 -5 16 9 14 15 11 15 -7z m2140 -7 c0 -7 -7 -22 -15 -33 -16 -20 -16 -18 0 31 5 18 15 20 15 2z m4647 -2 c0 -8 -4 -12 -9 -9 -5 3 -6 10 -3 15 9 13 12 11 12 -6z m-2189 -27 c10 -12 10 -18 1 -24 -7 -4 -9 -3 -5 4 3 6 2 13 -4 17 -5 3 -10 11 -10 17 0 6 1 9 3 7 1 -2 8 -11 15 -21z m2189 -13 c0 -8 -4 -12 -9 -9 -5 3 -6 10 -3 15 9 13 12 11 12 -6z m-15280 -57 c-2 -13 -4 -5 -4 17 -1 22 1 32 4 23 2 -10 2 -28 0 -40z m14693 46 c0 -8 -19 -13 -24 -6 -3 5 1 9 9 9 8 0 15 -2 15 -3z m-6202 -40 c-3 -14 -5 -12 -10 9 -3 19 -2 25 4 19 6 -6 8 -18 6 -28z m4637 -47 c2 -10 0 -15 -6 -11 -6 3 -8 8 -5 11 3 3 -1 18 -9 33 -8 15 -11 31 -7 34 6 7 16 -18 27 -67z m608 52 c4 -16 3 -18 -9 -8 -7 6 -11 15 -8 20 8 13 11 11 17 -12z m1544 6 c0 -8 -4 -12 -9 -9 -5 3 -6 10 -3 15 9 13 12 11 12 -6z m-4063 -32 c-17 -40 -43 -74 -29 -38 4 11 12 32 17 48 5 15 14 27 18 27 5 0 2 -17 -6 -37z m3470 -1 c3 -5 -1 -9 -9 -9 -8 0 -12 4 -9 9 3 4 7 8 9 8 2 0 6 -4 9 -8z m597 -9 c13 -16 12 -17 -3 -4 -17 13 -22 21 -14 21 2 0 10 -8 17 -17z m-6794 -15 c-3 -8 -6 -5 -6 6 -1 11 2 17 5 13 3 -3 4 -12 1 -19z m5273 -17 c12 -25 16 -42 10 -46 -6 -4 -10 -3 -9 2 2 8 -16 56 -27 74 -3 5 -3 9 0 9 3 0 15 -18 26 -39z m-13763 -18 c-3 -10 -5 -2 -5 17 0 19 2 27 5 18 2 -10 2 -26 0 -35z m7508 18 c3 -5 2 -12 -3 -15 -5 -3 -9 1 -9 9 0 17 3 19 12 6z m3056 -34 c-13 -13 -15 1 -4 30 7 17 8 17 11 -1 2 -10 -1 -23 -7 -29z m-9574 18 c0 -8 -4 -12 -9 -9 -5 3 -6 10 -3 15 9 13 12 11 12 -6z m14290 -7 c-3 -8 -6 -5 -6 6 -1 11 2 17 5 13 3 -3 4 -12 1 -19z m-6789 -17 c-1 -16 -5 -28 -9 -26 -6 5 0 55 7 55 3 0 3 -13 2 -29z m4647 19 c-3 -5 -1 -10 6 -10 7 0 10 -3 6 -6 -9 -9 -28 6 -22 17 4 5 8 9 11 9 3 0 2 -4 -1 -10z m-1964 -55 c-22 -47 -33 -44 -13 4 9 22 20 37 23 35 4 -2 -1 -19 -10 -39z m-11174 -32 c-2 -16 -4 -5 -4 22 0 28 2 40 4 28 2 -13 2 -35 0 -50z m13172 1 c7 -26 19 -60 27 -76 8 -15 11 -28 6 -28 -8 0 -39 75 -52 127 -4 18 -4 31 0 28 4 -3 13 -26 19 -51z m2108 24 c-3 -8 -6 -5 -6 6 -1 11 2 17 5 13 3 -3 4 -12 1 -19z m-6789 -43 c-3 -3 -9 2 -12 12 -6 14 -5 15 5 6 7 -7 10 -15 7 -18z m2042 5 c0 -5 -5 -10 -11 -10 -5 0 -7 5 -4 10 3 6 8 10 11 10 2 0 4 -4 4 -10z m3290 -22 c0 -19 -16 -5 -17 14 -2 18 0 20 7 8 5 -8 10 -18 10 -22z m-2674 10 c-2 -7 -8 -24 -14 -38 -13 -31 -15 -10 -2 24 10 27 20 36 16 14z m4130 -22 c0 -19 -3 -37 -6 -40 -3 -3 -5 9 -4 27 2 42 3 47 8 47 2 0 3 -15 2 -34z m-7771 15 c3 -5 2 -12 -3 -15 -5 -3 -9 1 -9 9 0 17 3 19 12 6z m983 -37 c0 -17 -3 -22 -8 -13 -5 6 -6 18 -3 26 8 19 11 16 11 -13z m-8491 -6 c-3 -8 -6 -5 -6 6 -1 11 2 17 5 13 3 -3 4 -12 1 -19z m10504 -17 c-6 -10 -7 -21 -4 -25 3 -3 -1 -6 -10 -6 -14 0 -15 4 -5 25 6 14 15 25 20 25 5 0 4 -8 -1 -19z m3329 9 c0 -5 -2 -10 -4 -10 -3 0 -8 5 -11 10 -3 6 -1 10 4 10 6 0 11 -4 11 -10z m-6325 -9 c3 -5 2 -12 -3 -15 -5 -3 -9 1 -9 9 0 17 3 19 12 6z m3610 -18 c-8 -20 -13 -42 -14 -60 -1 -7 -5 -13 -11 -13 -5 0 -7 8 -4 18 14 42 27 72 31 72 3 0 2 -8 -2 -17z m-2627 -22 c-1 -16 -5 -28 -9 -26 -6 5 0 55 7 55 3 0 3 -13 2 -29z m5362 20 c0 -6 -4 -13 -10 -16 -5 -3 -10 1 -10 9 0 9 5 16 10 16 6 0 10 -4 10 -9z m1430 0 c0 -6 -4 -12 -8 -15 -5 -3 -9 1 -9 9 0 8 4 15 9 15 4 0 8 -4 8 -9z m-15283 -33 c2 -17 0 -19 -7 -8 -5 8 -6 18 -4 22 8 12 10 10 11 -14z m7513 -8 c0 -5 -5 -10 -11 -10 -5 0 -7 5 -4 10 3 6 8 10 11 10 2 0 4 -4 4 -10z m5714 -6 c3 -8 2 -12 -4 -9 -6 3 -10 10 -10 16 0 14 7 11 14 -7z m2056 1 c0 -8 -2 -15 -4 -15 -2 0 -6 7 -10 15 -3 8 -1 15 4 15 6 0 10 -7 10 -15z m-14293 -10 c0 -8 -4 -12 -9 -9 -5 3 -6 10 -3 15 9 13 12 11 12 -6z m9474 -18 c-10 -9 -11 -8 -5 6 3 10 9 15 12 12 3 -3 0 -11 -7 -18z m-10464 -9 c-3 -8 -6 -5 -6 6 -1 11 2 17 5 13 3 -3 4 -12 1 -19z m8491 -3 c-3 -28 -11 -24 -13 5 -1 11 2 20 7 20 4 0 7 -11 6 -25z m6789 3 c-2 -7 0 -20 4 -30 6 -10 4 -18 -4 -21 -8 -3 -12 7 -12 29 0 19 3 34 8 34 5 0 7 -6 4 -12z m-4842 -74 c-14 -37 -25 -68 -25 -70 0 -2 -4 -4 -9 -4 -5 0 2 26 15 58 13 31 24 63 24 70 0 6 4 12 10 12 5 0 -1 -30 -15 -66z m638 51 c-3 -9 -8 -14 -10 -11 -3 3 -2 9 2 15 9 16 15 13 8 -4z m2185 -25 c6 -16 9 -30 7 -30 -5 0 -35 56 -35 65 0 15 19 -8 28 -35z m623 14 c5 -15 8 -29 5 -31 -2 -2 -8 10 -14 26 -13 38 -5 41 9 5z m-5393 -28 c-1 -14 -5 -23 -9 -20 -7 4 0 44 7 44 2 0 3 -11 2 -24z m-8491 -18 c-3 -7 -5 -2 -5 12 0 14 2 19 5 13 2 -7 2 -19 0 -25z m11063 -3 c0 -8 -4 -15 -10 -15 -5 0 -7 7 -4 15 4 8 8 15 10 15 2 0 4 -7 4 -15z m4219 -51 c-1 -36 -5 -61 -8 -56 -7 11 -2 122 5 122 3 0 4 -30 3 -66z m-1996 26 c3 -11 2 -20 -3 -20 -4 0 -10 9 -13 20 -3 11 -2 20 3 20 4 0 10 -9 13 -20z m-13286 -12 c-3 -8 -6 -5 -6 6 -1 11 2 17 5 13 3 -3 4 -12 1 -19z m8491 -3 c-3 -28 -11 -24 -13 5 -1 11 2 20 7 20 4 0 7 -11 6 -25z m2552 -14 c-8 -30 -28 -71 -34 -71 -2 0 3 22 12 50 18 52 37 71 22 21z m2887 -28 c-3 -10 -5 -4 -5 12 0 17 2 24 5 18 2 -7 2 -21 0 -30z m-624 0 c2 -10 8 -27 12 -38 l7 -20 -14 20 c-20 27 -29 55 -19 55 5 0 11 -8 14 -17z m-2910 -8 c-3 -9 -8 -14 -10 -11 -3 3 -2 9 2 15 9 16 15 13 8 -4z m-10396 -32 c-3 -10 -5 -4 -5 12 0 17 2 24 5 18 2 -7 2 -21 0 -30z m8490 5 c-3 -7 -5 -2 -5 12 0 14 2 19 5 13 2 -7 2 -19 0 -25z m-7500 7 c0 -8 -4 -12 -9 -9 -5 3 -6 10 -3 15 9 13 12 11 12 -6z m12972 -35 c5 -17 6 -28 2 -25 -5 3 -14 19 -20 35 -5 17 -6 28 -2 25 5 -3 14 -19 20 -35z m1318 -20 c-2 -22 0 -43 5 -46 4 -3 5 -11 1 -17 -11 -17 -11 -30 -1 -44 5 -6 5 -14 -2 -18 -11 -7 -12 -1 -14 97 0 38 3 68 7 68 4 0 6 -18 4 -40z m-6789 5 c-3 -3 -9 2 -12 12 -6 14 -5 15 5 6 7 -7 10 -15 7 -18z m4848 -20 c6 -19 8 -35 4 -35 -4 0 -10 8 -13 18 -2 9 -8 25 -12 35 -4 9 -3 17 1 17 5 0 14 -16 20 -35z m-2979 -15 c-6 -16 -15 -30 -19 -30 -5 0 -2 14 7 30 9 17 17 30 19 30 3 0 -1 -13 -7 -30z m653 26 c0 -2 -7 -7 -16 -10 -8 -3 -12 -2 -9 4 6 10 25 14 25 6z m-2523 -28 c-3 -8 -6 -5 -6 6 -1 11 2 17 5 13 3 -3 4 -12 1 -19z m2493 -28 c-6 -11 -12 -20 -14 -20 -2 0 -2 9 1 20 3 11 9 20 15 20 5 0 4 -9 -2 -20z m3007 13 c-4 -3 -3 -11 2 -17 16 -22 20 -45 8 -52 -7 -4 -9 -4 -5 1 4 4 1 20 -7 35 -13 24 -11 40 3 40 3 0 2 -3 -1 -7z m-5500 -30 c1 -24 0 -25 -6 -8 -7 17 -6 35 2 35 2 0 3 -12 4 -27z m-8490 -15 c-3 -7 -5 -2 -5 12 0 14 2 19 5 13 2 -7 2 -19 0 -25z m14686 17 c-3 -9 -8 -14 -10 -11 -3 3 -2 9 2 15 9 16 15 13 8 -4z m-4356 -27 c-3 -8 -6 -5 -6 6 -1 11 2 17 5 13 3 -3 4 -12 1 -19z m636 -18 c-3 -11 -9 -20 -14 -20 -12 0 -11 17 1 25 6 4 7 11 4 17 -4 6 -2 8 4 5 5 -4 8 -16 5 -27z m2401 14 c3 -8 2 -12 -4 -9 -6 3 -10 10 -10 16 0 14 7 11 14 -7z m1313 -16 c-3 -8 -6 -5 -6 6 -1 11 2 17 5 13 3 -3 4 -12 1 -19z m-4363 -28 c-16 -32 -27 -40 -19 -15 3 8 7 22 10 30 2 8 9 15 14 15 5 0 3 -13 -5 -30z m-1827 -2 c-3 -8 -6 -5 -6 6 -1 11 2 17 5 13 3 -3 4 -12 1 -19z m4928 -82 c9 -26 15 -50 12 -52 -4 -5 -31 62 -42 106 -10 40 11 2 30 -54z m1866 52 c-4 -13 -6 -30 -3 -38 3 -8 1 -11 -4 -7 -14 13 -11 67 3 67 9 0 10 -7 4 -22z m-14294 -3 c0 -8 -4 -12 -9 -9 -5 3 -6 10 -3 15 9 13 12 11 12 -6z m7500 -17 c2 -18 0 -20 -7 -8 -12 18 -13 30 -2 30 4 0 9 -10 9 -22z m1798 -27 c-16 -45 -44 -100 -45 -87 0 5 10 35 23 67 24 65 44 82 22 20z m3765 25 c0 -3 -4 -8 -10 -11 -5 -3 -10 -1 -10 4 0 6 5 11 10 11 6 0 10 -2 10 -4z m-13063 -21 c0 -8 -4 -12 -9 -9 -5 3 -6 10 -3 15 9 13 12 11 12 -6z m9933 -10 c-7 -9 -15 -13 -17 -11 -7 7 7 26 19 26 6 0 6 -6 -2 -15z m3140 5 c0 -5 -5 -10 -11 -10 -5 0 -7 5 -4 10 3 6 8 10 11 10 2 0 4 -4 4 -10z m1221 -23 c-1 -4 -1 -27 -1 -52 0 -25 -3 -45 -8 -45 -4 0 -7 25 -7 55 0 30 4 54 8 52 5 -1 8 -6 8 -10z m-6794 -19 c-3 -8 -6 -5 -6 6 -1 11 2 17 5 13 3 -3 4 -12 1 -19z m5590 -19 c8 -17 8 -30 1 -40 -8 -12 -9 -11 -5 1 3 9 -1 24 -9 35 -8 10 -14 26 -14 34 0 19 12 5 27 -30z m-3181 1 c0 -12 -4 -16 -9 -11 -5 5 -6 14 -3 20 10 15 12 14 12 -9z m3794 5 c0 -2 -6 -8 -13 -14 -10 -8 -14 -7 -14 2 0 8 6 14 14 14 7 0 13 -1 13 -2z m-6202 -30 c-3 -3 -9 2 -12 12 -6 14 -5 15 5 6 7 -7 10 -15 7 -18z m-7501 -10 c0 -8 -4 -12 -9 -9 -5 3 -6 10 -3 15 9 13 12 11 12 -6z m9893 -15 c-6 -11 -12 -20 -14 -20 -2 0 -2 9 1 20 3 11 9 20 15 20 5 0 4 -9 -2 -20z m2567 13 c-4 -3 -3 -11 2 -17 9 -12 21 -56 15 -56 -3 0 -34 68 -34 76 0 2 5 4 12 4 6 0 8 -3 5 -7z m1238 -11 c-3 -3 -11 0 -18 7 -9 10 -8 11 6 5 10 -3 15 -9 12 -12z m-6198 -24 c-3 -7 -5 -2 -5 12 0 14 2 19 5 13 2 -7 2 -19 0 -25z m-7500 -3 c0 -8 -4 -12 -9 -9 -5 3 -6 10 -3 15 9 13 12 11 12 -6z m14298 -70 c0 -43 -4 -75 -10 -75 -6 0 -10 32 -10 75 0 43 4 75 10 75 6 0 10 -32 10 -75z m-4419 53 c-2 -15 -25 -56 -26 -46 0 11 19 58 24 58 2 0 3 -6 2 -12z m3808 -38 c-5 -5 -10 3 -11 18 -1 22 0 24 9 8 6 -10 6 -22 2 -26z m-557 -2 c4 -28 -6 -18 -12 12 -2 12 -1 20 2 16 4 -4 8 -16 10 -28z m-3897 6 c0 -8 -5 -12 -10 -9 -6 4 -8 11 -5 16 9 14 15 11 15 -7z m-10 -44 c5 -33 -1 -61 -10 -55 -6 4 -9 24 -8 45 3 37 14 43 18 10z m4471 -8 c-4 -9 -6 -23 -4 -29 3 -7 1 -13 -4 -13 -5 0 -9 11 -9 25 0 14 4 25 9 25 4 0 5 5 1 12 -4 7 -3 8 4 4 8 -5 9 -13 3 -24z m-3841 -2 c0 -5 -4 -10 -10 -10 -5 0 -10 5 -10 10 0 6 5 10 10 10 6 0 10 -4 10 -10z m2666 -28 c-4 -3 -11 0 -16 8 -15 24 -11 33 6 15 9 -9 13 -19 10 -23z m-13501 -2 c3 -5 1 -10 -4 -10 -6 0 -11 5 -11 10 0 6 2 10 4 10 3 0 8 -4 11 -10z m52 -12 c-3 -8 -6 -5 -6 6 -1 11 2 17 5 13 3 -3 4 -12 1 -19z m923 12 c-8 -5 -24 -9 -35 -9 -16 1 -16 2 5 9 35 11 48 11 30 0z m6643 -5 c27 0 50 -2 52 -5 2 -3 -37 -6 -86 -6 -49 0 -89 3 -89 7 0 12 24 16 50 9 14 -4 47 -6 73 -5z m2697 -8 c0 -7 -4 -6 -10 3 -5 8 -10 10 -10 4 0 -6 -7 -11 -15 -11 -21 0 -19 15 3 20 21 4 32 -1 32 -16z m3225 5 c-3 -3 -11 0 -18 7 -9 10 -8 11 6 5 10 -3 15 -9 12 -12z m-13410 -1 c-8 -8 -65 -6 -65 2 0 4 16 7 35 5 19 -1 32 -4 30 -7z m785 5 c0 -11 -19 -15 -25 -6 -3 5 1 10 9 10 9 0 16 -2 16 -4z m6825 -6 c3 -5 1 -10 -4 -10 -6 0 -11 5 -11 10 0 6 2 10 4 10 3 0 8 -4 11 -10z m99 2 c2 -4 -5 -9 -17 -9 -17 -2 -19 0 -7 7 18 12 18 12 24 2z m186 -2 c0 -4 -12 -7 -26 -7 -14 0 -21 3 -15 7 7 3 18 7 26 7 8 0 15 -4 15 -7z m95 -8 c-3 -3 -11 0 -18 7 -9 10 -8 11 6 5 10 -3 15 -9 12 -12z m2322 4 c9 -8 -77 -5 -102 4 -12 5 4 7 38 5 32 -1 61 -5 64 -9z m37 6 c3 -5 -1 -9 -9 -9 -8 0 -12 4 -9 9 3 4 7 8 9 8 2 0 6 -4 9 -8z m3116 -2 c0 -5 -5 -10 -11 -10 -5 0 -7 5 -4 10 3 6 8 10 11 10 2 0 4 -4 4 -10z m130 -5 c0 -2 -9 -3 -19 -2 -11 0 -18 5 -15 9 4 6 34 0 34 -7z m400 5 c0 -5 -2 -10 -4 -10 -3 0 -8 5 -11 10 -3 6 -1 10 4 10 6 0 11 -4 11 -10z m-6413 -6 c-3 -3 -12 -4 -19 -1 -8 3 -5 6 6 6 11 1 17 -2 13 -5z m170 0 c-3 -3 -12 -4 -19 -1 -8 3 -5 6 6 6 11 1 17 -2 13 -5z" transform="translate(0.000000,1600.000000) scale(0.100000,-0.100000)"/><path d="M13601 10811 c-9 -6 -6 -8 13 -8 14 0 23 3 20 8 -7 11 -15 11 -33 0z" transform="translate(0.000000,1600.000000) scale(0.100000,-0.100000)"/></g></svg>